<?xml version="1.0" encoding="UTF-8" standalone="no"?>
<!-- Created with Inkscape (http://www.inkscape.org/) -->

<svg
   width="750"
   height="750"
   viewBox="0 0 198.4375 198.4375"
   version="1.1"
   id="svg972"
   inkscape:version="1.2 (dc2aeda, 2022-05-15)"
   sodipodi:docname="cone.svg"
   inkscape:export-filename="geometric_cone.png"
   inkscape:export-xdpi="96"
   inkscape:export-ydpi="96"
   xmlns:inkscape="http://www.inkscape.org/namespaces/inkscape"
   xmlns:sodipodi="http://sodipodi.sourceforge.net/DTD/sodipodi-0.dtd"
   xmlns="http://www.w3.org/2000/svg"
   xmlns:svg="http://www.w3.org/2000/svg">
  <sodipodi:namedview
     id="namedview974"
     pagecolor="#ffffff"
     bordercolor="#000000"
     borderopacity="0.25"
     inkscape:showpageshadow="2"
     inkscape:pageopacity="0.0"
     inkscape:pagecheckerboard="0"
     inkscape:deskcolor="#d1d1d1"
     inkscape:document-units="mm"
     showgrid="false"
     inkscape:zoom="0.35102522"
     inkscape:cx="-192.29388"
     inkscape:cy="360.37297"
     inkscape:window-width="1309"
     inkscape:window-height="663"
     inkscape:window-x="0"
     inkscape:window-y="25"
     inkscape:window-maximized="0"
     inkscape:current-layer="layer1" />
  <defs
     id="defs969" />
  <g
     inkscape:label="Layer 1"
     inkscape:groupmode="layer"
     id="layer1">
    <path
       style="fill:#cccccc;fill-opacity:0.15000001;stroke-width:0.999995"
       d="m 133.32733,188.43299 -4.7975,-1.10192 5.79462,0.96434 5.79462,0.96435 -2.51552,-1.69836 c -2.45674,-1.65867 -2.63433,-1.72671 -7.59738,-2.90975 -3.1272,-0.74543 -5.10396,-1.09829 -5.13932,-0.91732 -0.0672,0.34367 2.67635,2.90552 3.22682,3.01312 0.20583,0.0403 0.34652,0.21501 0.31263,0.38835 -0.036,0.1844 -0.53364,0.15547 -1.19915,-0.0697 -0.62565,-0.21178 -4.03877,-1.17803 -7.58472,-2.14724 -6.00624,-1.64168 -15.71744,-4.63436 -21.878537,-6.74224 -2.026803,-0.69345 -2.553182,-0.97958 -2.253128,-1.22473 0.46679,-0.38137 0.444838,-1.88107 -0.03191,-2.17959 -0.184912,-0.1158 -2.946785,-1.19572 -6.137528,-2.39987 -5.593248,-2.11083 -5.827407,-2.17365 -6.5279,-1.75134 -1.503726,0.90654 -0.911992,1.41166 3.469611,2.96163 0.831866,0.29428 1.332151,0.55949 1.111754,0.58937 -0.339209,0.0461 -3.263849,-1.01118 -6.535399,-2.36236 l -0.850377,-0.35122 1.059247,-0.74629 c 0.802619,-0.56548 0.972859,-0.82619 0.702712,-1.07615 -0.196102,-0.18142 -2.78855,-1.35255 -5.761043,-2.60247 -5.650964,-2.3762 -6.636265,-2.57831 -8.442491,-1.73171 -0.575286,0.26968 -0.159457,0.51437 3.469131,2.04139 2.267525,0.95425 3.958335,1.75627 3.75737,1.78229 -0.390567,0.0505 -11.508974,-4.72316 -11.720409,-5.03217 -0.06922,-0.10102 0.422752,0.0205 1.093159,0.27028 0.916645,0.34145 1.634449,0.36227 2.894311,0.0839 2.028601,-0.4482 2.209928,-0.29969 -4.172109,-3.41749 -4.203608,-2.05367 -4.558969,-2.17549 -6.388563,-2.19047 -2.687301,-0.0219 -3.118284,0.0401 -2.972,0.42811 0.07821,0.20758 -0.196976,0.18863 -0.713378,-0.0491 -2.043167,-0.94069 -2.050328,-1.08044 -0.05604,-1.09311 3.000346,-0.0192 3.405632,-0.0503 3.447645,-0.26518 0.02147,-0.11001 -1.901645,-1.25335 -4.273633,-2.5409 -4.272338,-2.31907 -4.341497,-2.34452 -7.385249,-2.71744 -1.689884,-0.20706 -3.173466,-0.30851 -3.296863,-0.22547 -0.123423,0.0832 0.905513,0.77031 2.286466,1.52728 1.380941,0.75695 2.435028,1.42729 2.342406,1.48961 -0.24661,0.16597 -7.013888,-3.6872 -11.663524,-6.64101 -7.674145,-4.8752 -13.11919,-9.25981 -16.677427,-13.42946 -1.806839,-2.11726 -2.441113,-3.15345 -3.030424,-4.95067 -0.824394,-2.51405 -0.705124,-3.28104 0.856242,-5.50626 0.472768,-0.67378 6.877677,-6.45222 14.233163,-12.84097 7.355485,-6.38877 16.177458,-14.051326 19.604397,-17.027921 3.42694,-2.976595 7.473686,-6.478856 8.992777,-7.782804 3.784802,-3.248787 20.04362,-17.385604 21.255136,-18.481029 0.540163,-0.488411 4.5722,-3.99133 8.9601,-7.784262 4.387898,-3.792935 9.645261,-8.352699 11.683055,-10.132812 7.33685,-6.409094 19.0695,-16.599096 30.74022,-26.698385 6.53943,-5.658891 14.24302,-12.375799 17.11912,-14.9264309 2.87609,-2.5506326 5.4216,-4.6443846 5.65666,-4.6527796 0.26026,-0.00924 0.55651,0.7442325 0.75755,1.9268497 0.37256,2.1915874 1.97668,12.5659878 2.56825,16.6097148 0.21432,1.46491 1.26992,8.365888 2.3458,15.335501 1.07587,6.969614 2.42181,15.8193 2.99099,19.665959 0.56916,3.846668 1.2963,8.573172 1.61587,10.503343 0.31956,1.93017 1.12189,7.035201 1.78295,11.344524 0.66106,4.309322 1.31024,8.438444 1.44262,9.175822 0.32203,1.793864 2.56627,16.29892 3.32815,21.51064 0.33459,2.28887 1.16436,7.61758 1.84393,11.84157 0.67956,4.224 1.63635,10.37797 2.1262,13.6755 0.48986,3.29754 1.35551,8.91469 1.92367,12.48258 0.56815,3.56787 0.96879,6.53024 0.89029,6.58308 -0.0786,0.0529 -0.21124,-0.44624 -0.29502,-1.10902 -0.0838,-0.66278 -0.21891,-1.16025 -0.30031,-1.10544 -0.0813,0.0547 -0.0482,0.83237 0.0738,1.72798 0.122,0.89562 0.32568,1.44472 0.45269,1.22021 0.12701,-0.22451 0.44329,0.93154 0.70288,2.56899 0.2596,1.63745 0.67846,4.22641 0.93085,5.75323 0.25235,1.52684 0.33948,2.66562 0.19361,2.53063 -0.14586,-0.13496 -0.30721,-0.84431 -0.35853,-1.57628 -0.0514,-0.73198 -0.17748,-1.27424 -0.28037,-1.20499 -0.22868,0.1539 -0.0209,2.17411 0.71967,6.99686 1.11964,7.29147 1.52457,9.52817 1.7032,9.40797 0.1,-0.0673 0.0327,-0.92083 -0.14941,-1.8967 -0.56541,-3.02822 -1.54048,-10.6868 -1.39365,-10.94634 0.0768,-0.13559 0.44004,1.81804 0.80744,4.34142 0.36739,2.52337 1.02517,6.88598 1.46172,9.69469 l 0.7937,5.10672 -0.94108,1.777 c -0.91224,1.72255 -1.02798,1.81307 -3.77574,2.95274 -2.41476,1.00158 -3.46599,1.21966 -7.09698,1.47236 -5.60106,0.38978 -12.87061,-0.0713 -19.48664,-1.23541 -2.92333,-0.51447 -3.8344,-0.70333 -2.02456,-0.41984 1.8098,0.28363 3.43332,0.41957 3.60778,0.30214 0.17466,-0.1176 -1.14216,-1.03875 -2.93053,-2.05012 -3.066,-1.73389 -3.45194,-1.87369 -6.89766,-2.49859 -2.00749,-0.36405 -4.13589,-0.65494 -4.72979,-0.64637 -1.05164,0.0145 -1.01032,0.0629 1.58318,1.82781 1.46466,0.99673 3.20729,2.00591 3.87254,2.24262 1.40954,0.50158 -3.25237,-0.41732 -10.12091,-1.99499 z m -7.72088,-2.69166 c -2.00957,-2.28967 -2.63354,-2.60456 -8.40007,-4.23928 -3.05829,-0.86697 -5.66263,-1.50764 -5.78739,-1.42367 -0.12471,0.0839 0.16332,0.72535 0.64016,1.4253 l 0.86701,1.27268 5.36472,1.50914 c 2.95058,0.83003 5.92267,1.63276 6.60465,1.78385 1.17685,0.26073 1.21295,0.24444 0.71092,-0.32802 z m 35.79855,6.81835 c 1.547,0.10401 2.71821,0.0685 2.60273,-0.079 -0.11553,-0.14734 -2.09732,-1.18968 -4.40401,-2.31619 l -4.19402,-2.04817 -3.52583,-0.27686 c -1.93922,-0.15222 -3.6174,-0.17796 -3.7293,-0.0571 -0.11193,0.12086 1.40479,1.12889 3.37043,2.23989 3.86994,2.18731 3.58398,2.11388 9.88,2.53722 z m -50.39495,-10.73524 c 0.03,-0.15348 -0.33591,-0.78529 -0.81318,-1.40377 -0.73402,-0.95122 -1.28359,-1.26321 -3.56606,-2.02445 -5.30976,-1.77086 -9.234192,-2.94869 -9.416318,-2.82612 -0.101859,0.0687 -0.15549,0.55975 -0.119131,1.09154 l 0.06611,0.9669 6.202019,2.07047 c 7.13257,2.3811 7.57274,2.50345 7.64664,2.12545 z m 58.5058,10.73841 c 3.18044,-0.2817 3.28447,-0.29977 3.12147,-0.54198 -0.0786,-0.1167 -2.45539,-1.22248 -5.28183,-2.45718 l -5.13898,-2.24495 -2.58855,0.29359 c -1.4237,0.16145 -2.6087,0.39672 -2.63335,0.52277 -0.0246,0.12613 1.45391,0.93814 3.28563,1.80469 1.83172,0.86655 3.58886,1.74232 3.90478,1.94616 1.00308,0.64722 2.91918,0.89052 5.33083,0.6769 z m -36.41933,-7.91263 c 0.0171,-0.0872 -1.08141,-0.98231 -2.44099,-1.98936 -2.44543,-1.81133 -2.51593,-1.84104 -6.57372,-2.76935 -2.25597,-0.51618 -4.12103,-0.81878 -4.14458,-0.67249 -0.0237,0.14624 0.66333,0.91335 1.5264,1.70463 1.39816,1.28183 1.87115,1.51739 4.3388,2.16069 4.07881,1.06337 7.25888,1.74606 7.29409,1.56588 z m 9.17386,1.63425 c 0.87365,0.17069 1.46319,0.16562 1.3271,-0.0126 -0.13467,-0.17541 -1.81473,-1.22233 -3.73344,-2.32637 -3.39916,-1.95587 -3.56759,-2.018 -6.57237,-2.42423 -1.69611,-0.22936 -3.06663,-0.28402 -3.04562,-0.1216 0.021,0.16237 1.11792,1.09336 2.43753,2.06871 2.37858,1.75807 2.42358,1.77659 5.20706,2.14065 1.54425,0.20203 3.51515,0.50554 4.37974,0.67456 z m -21.20584,-4.60691 c 0.0143,-0.0732 -0.73211,-0.82395 -1.65873,-1.66821 -1.63545,-1.49014 -1.80929,-1.56895 -5.94192,-2.6939 -2.34143,-0.63738 -4.37432,-1.08002 -4.51753,-0.98368 -0.1432,0.0964 0.12906,0.75158 0.60504,1.45603 0.81671,1.20875 1.02881,1.329 3.77034,2.13761 3.19204,0.9415 7.70178,1.96202 7.7428,1.75213 z m 29.65228,5.48338 c 2.33825,0.0592 2.38727,0.0438 1.56977,-0.4976 -0.46412,-0.30735 -2.54291,-1.38156 -4.61954,-2.38714 -3.51837,-1.70372 -3.93422,-1.83735 -6.10205,-1.96109 -1.2795,-0.073 -2.46022,-0.0455 -2.62381,0.0609 -0.16359,0.10656 1.175,1.07594 2.9747,2.15437 3.5996,2.15702 4.84873,2.53039 8.80093,2.63059 z m 25.88438,4.0456 c 1.71708,-0.67795 2.49462,-1.28203 1.81866,-1.41286 -0.12854,-0.0248 -2.78171,-0.9909 -5.89591,-2.14673 l -5.66219,-2.10151 -1.56448,0.60758 c -2.43811,0.94683 -2.6298,0.79157 5.17247,4.18997 1.72116,0.74971 3.36962,1.42253 3.66324,1.4952 0.29363,0.0727 1.40431,-0.21157 2.46821,-0.63165 z m -68.43846,-13.93397 c -0.39303,-0.65494 -0.76769,-1.30445 -0.83257,-1.44336 -0.0649,-0.13899 -1.89678,-0.8243 -4.07086,-1.52305 -2.17409,-0.69877 -4.393502,-1.43613 -4.93202,-1.6386 -0.911141,-0.34257 -0.990617,-0.30756 -1.144566,0.50358 -0.0913,0.47937 -0.09308,1.0484 -0.0047,1.26438 0.140331,0.34256 8.293456,3.22375 10.791256,3.81346 l 0.90799,0.2144 z m 49.57209,9.85049 c 1.1168,-0.0923 2.07605,-0.3044 2.13165,-0.47142 0.0557,-0.16707 -2.22129,-1.30761 -5.0598,-2.53468 l -5.16093,-2.23102 -1.89392,0.17559 c -1.04166,0.0966 -1.91256,0.27093 -1.93536,0.38753 -0.0228,0.11671 1.44694,0.97369 3.26606,1.90465 1.81914,0.93094 3.63475,1.87993 4.03469,2.10887 1.14953,0.65805 2.43053,0.84129 4.61761,0.66056 z M 95.833045,173.40707 c 0.08973,-0.47162 0.09105,-1.03805 0.0037,-1.25862 -0.08757,-0.22056 -2.262581,-1.18082 -4.833373,-2.13387 l -4.674158,-1.73284 -1.011945,0.64428 c -0.556562,0.35435 -0.948243,0.74011 -0.870374,0.85723 0.104378,0.15693 9.234385,3.8145 10.996053,4.40508 0.125214,0.042 0.300859,-0.30958 0.39033,-0.78126 z m 29.671095,6.08987 c 0.11901,-0.12847 -1.03112,-1.08786 -2.55575,-2.13181 -2.66328,-1.82362 -2.88193,-1.91579 -5.57294,-2.34955 l -2.80089,-0.45144 1.76047,1.63778 c 1.66895,1.55265 1.92061,1.67865 4.8409,2.42402 1.69425,0.43239 3.31251,0.85791 3.59618,0.94551 0.28366,0.0876 0.61307,0.0541 0.73203,-0.0744 z m 6.93383,1.30796 c 0.91841,0.17958 1.69152,0.21539 1.71803,0.0797 0.0265,-0.13573 -1.63619,-1.19467 -3.69488,-2.35337 -3.45524,-1.94471 -3.90834,-2.12181 -5.89167,-2.30267 -2.44601,-0.22307 -2.47722,-0.28792 1.13989,2.36846 1.86994,1.3733 2.50509,1.68066 3.66065,1.7715 0.76898,0.0606 2.14957,0.25682 3.06798,0.43633 z m -16.39304,-3.56031 c -0.026,-0.20082 -0.73414,-1.00319 -1.57366,-1.78309 -1.33722,-1.24224 -1.89949,-1.52823 -4.53681,-2.3077 -1.65572,-0.48935 -3.14376,-0.79998 -3.30674,-0.69026 -0.16298,0.10965 0.10593,0.77988 0.59766,1.48932 0.87484,1.26225 0.97397,1.31319 4.6294,2.37861 2.05448,0.5988 3.84836,1.13138 3.98641,1.18351 0.13805,0.0522 0.2297,-0.0694 0.20374,-0.27035 z m 47.42115,8.62409 c 0.87476,-0.37978 1.52507,-0.78767 1.44515,-0.90646 -0.0799,-0.11868 -2.75426,-1.19425 -5.94294,-2.38996 -6.11596,-2.29337 -6.67791,-2.38232 -8.03675,-1.27213 -0.40713,0.33262 -0.14415,0.53044 1.85323,1.39401 1.28023,0.55352 3.66665,1.60189 5.30316,2.32969 1.6365,0.72781 3.15818,1.371 3.38155,1.42933 0.22338,0.0583 1.12183,-0.20468 1.9966,-0.58448 z m -22.32478,-4.33826 c 0.60537,-0.19972 0.64227,-0.17214 -1.9728,-1.47106 -5.8682,-2.91465 -6.34803,-3.10523 -8.17592,-3.24717 -1.00874,-0.0783 -1.85278,-0.0469 -1.8756,0.0699 -0.0228,0.11687 1.56091,1.1352 3.51942,2.26306 3.24123,1.86656 3.75946,2.07343 5.77175,2.30412 1.21596,0.13935 2.44587,0.17596 2.73315,0.0811 z m 39.20205,7.19373 c 1.3863,-2.07579 1.5491,-1.94601 -5.12068,-4.08292 -3.30601,-1.05921 -6.21003,-1.97792 -6.45339,-2.04158 -0.45824,-0.11978 -1.61443,1.94447 -1.32769,2.37055 0.14721,0.21873 10.53411,4.31226 11.68435,4.60486 0.35691,0.0908 0.79123,-0.21278 1.21741,-0.85091 z M 106.1322,174.40431 c 0.12413,-0.13426 -0.21529,-0.83276 -0.75442,-1.55228 -0.91935,-1.22696 -1.1826,-1.37196 -4.23706,-2.33391 -1.791242,-0.56409 -3.384579,-0.97748 -3.540748,-0.9186 -0.156161,0.0588 -0.304564,0.54246 -0.329723,1.07459 -0.05207,1.0987 -0.13852,1.0513 5.031231,2.75751 1.75452,0.57905 3.28338,1.0897 3.39748,1.1348 0.11408,0.045 0.30906,-0.0279 0.43327,-0.16218 z m 39.49831,7.15145 c 0.93165,-0.11162 1.71175,-0.29441 1.73355,-0.40598 0.0412,-0.21042 -9.85441,-4.5351 -10.78157,-4.71189 -0.9351,-0.17795 -2.36415,0.19454 -2.12241,0.55368 0.17675,0.26261 8.37853,4.42065 9.28306,4.70624 0.1064,0.0335 0.95573,-0.0305 1.88737,-0.14207 z M 83.847996,168.55904 c 0.485347,-0.34912 0.829909,-0.71284 0.765681,-0.80828 -0.172765,-0.25672 -8.299662,-3.73929 -9.047974,-3.87728 -0.995436,-0.18358 -3.783304,0.58796 -3.26698,0.90411 0.837349,0.51272 9.082547,4.04662 9.870148,4.23036 0.477083,0.11134 1.15066,-0.0687 1.679125,-0.44891 z m 12.252041,1.82772 c 0.07306,-0.38596 0.05542,-0.89829 -0.03851,-1.13841 -0.09394,-0.24011 -1.705287,-1.03391 -3.580889,-1.76396 l -3.410166,-1.32738 -1.055156,0.67772 c -0.580326,0.37275 -0.969802,0.80438 -0.86548,0.9592 0.220361,0.32705 6.327609,2.72181 7.812044,3.06328 0.84794,0.19509 1.026616,0.12123 1.138108,-0.47045 z m 54.122573,10.20267 c 0.59453,-0.31162 1.01549,-0.66509 0.93542,-0.78545 -0.08,-0.12033 -2.80794,-1.22798 -6.06198,-2.46137 -5.29885,-2.00847 -5.99415,-2.20803 -6.66113,-1.91181 -0.4454,0.19784 -0.65337,0.46647 -0.51746,0.66843 0.18429,0.27382 9.82637,4.66374 10.91758,4.97062 0.16861,0.0475 0.79302,-0.1687 1.38757,-0.48042 z m 16.29813,2.79967 c 0.28828,-0.72496 0.31981,-1.18581 0.0953,-1.39355 -0.48894,-0.45244 -11.73431,-4.0277 -12.33661,-3.92221 -0.29357,0.0513 -0.58452,0.47043 -0.68556,0.98734 l -0.17553,0.89808 5.34436,2.02683 c 7.27283,2.7582 7.22297,2.74918 7.75807,1.40354 z m -48.37433,-9.20163 c -0.13518,-0.17287 -1.3321,-1.08544 -2.65982,-2.02795 -2.37191,-1.68376 -5.56052,-2.9892 -5.68951,-2.32934 -0.0334,0.171 0.77256,1.07336 1.79107,2.00524 1.75857,1.60901 1.97653,1.7188 4.32795,2.18033 1.3619,0.26719 2.36552,0.34455 2.23031,0.17171 z m 6.40907,1.21271 c 0.0823,-0.42073 -6.99094,-4.29434 -8.3135,-4.55288 -0.60696,-0.11863 -1.12443,-0.10881 -1.14997,0.0218 -0.0256,0.13063 1.13576,1.07652 2.58068,2.10197 2.22025,1.57569 2.95218,1.93098 4.72612,2.29426 1.1544,0.23667 2.12496,0.29706 2.15667,0.13482 z m -13.46951,-2.93161 c -0.063,-0.16721 -0.84601,-0.95892 -1.73993,-1.75938 -1.1507,-1.03037 -2.16905,-1.62869 -3.48721,-2.04888 -1.02404,-0.32643 -1.88571,-0.47153 -1.91487,-0.32236 -0.12778,0.65366 1.44336,2.94308 2.20743,3.2166 1.61139,0.57686 5.04741,1.21331 4.93457,0.9141 z m 18.35528,3.58188 c 0.53587,-0.0126 0.85107,-0.13482 0.70049,-0.27445 -0.73072,-0.67709 -9.56971,-4.79948 -10.09398,-4.70766 -0.92414,0.16183 -0.41264,0.5815 3.36024,2.75688 3.47435,2.00328 4.18274,2.26455 6.03325,2.22523 z M 86.515693,166.4932 c 0.485364,-0.3491 0.812446,-0.7388 0.726863,-0.86597 -0.08566,-0.12713 -1.538538,-0.82488 -3.228771,-1.55048 -2.94159,-1.26276 -3.143381,-1.31006 -4.712343,-1.10461 -0.901541,0.11802 -1.719982,0.35752 -1.818762,0.53216 -0.107002,0.18914 1.0014,0.83144 2.741971,1.58889 1.606843,0.69927 3.05216,1.34781 3.211783,1.44121 0.957335,0.56013 2.267642,0.54264 3.079259,-0.0412 z m 16.797837,3.0397 c -0.76158,-1.53933 -1.5507,-2.09441 -3.77374,-2.65454 -1.776295,-0.44757 -1.858591,-0.43579 -2.082312,0.29705 -0.128123,0.41965 -0.151766,0.96268 -0.05256,1.20678 0.188431,0.4634 2.800512,1.48717 5.127812,2.00977 l 1.35641,0.30462 z m 31.21663,6.12871 c 0.0278,-0.14261 0.0108,-0.26707 -0.038,-0.27658 -0.0487,-0.009 -2.21595,-0.94254 -4.81608,-2.07337 -4.68786,-2.03883 -6.77059,-2.70682 -6.86904,-2.20315 -0.028,0.14384 2.10252,1.33634 4.73474,2.65002 4.00553,1.99904 4.9613,2.37008 5.86176,2.27541 0.59173,-0.0624 1.09869,-0.22977 1.12655,-0.37234 z m 46.57621,9.88639 c 0.0739,-0.40304 -1.18189,-3.86918 -1.42013,-3.9207 -0.12458,-0.0268 -2.84974,-0.77486 -6.05597,-1.66208 -3.20622,-0.88722 -5.93405,-1.63661 -6.06183,-1.66534 -0.48399,-0.10873 -0.37324,0.83957 0.25679,2.19939 l 0.65355,1.41061 4.8374,1.52081 c 2.66058,0.83644 4.96866,1.59389 5.12908,1.68323 0.59244,0.32987 2.61977,0.66057 2.6611,0.43411 z M 72.118335,163.49297 c 2.015539,-0.43363 1.926262,-0.52358 -2.741731,-2.76166 -3.374658,-1.618 -3.624327,-1.69212 -6.032892,-1.79126 -1.43003,-0.0589 -2.493489,0.0437 -2.46832,0.23831 0.04533,0.35118 7.739465,4.23251 8.941192,4.51046 0.368807,0.0853 1.404588,-0.002 2.301751,-0.19586 z m 80.340105,14.96176 c 0.51844,-1.06144 0.25227,-1.21114 -5.28065,-2.96996 -6.73029,-2.13944 -7.14718,-2.22128 -7.41366,-1.45529 -0.20396,0.58632 0.0217,0.73794 2.57287,1.72832 7.1503,2.77575 9.13522,3.51546 9.41989,3.51038 0.16874,-0.004 0.48447,-0.36912 0.70156,-0.81354 z M 96.234576,167.17896 c -0.02723,-1.49289 0.03479,-1.42988 -2.300598,-2.33539 l -2.121405,-0.82254 -1.165453,0.78432 c -1.341148,0.90256 -1.383494,0.8544 1.918107,2.18143 3.565485,1.4331 3.692094,1.43973 3.669349,0.19218 z m 40.686764,7.8646 c 0.26777,-0.21877 0.44136,-0.45731 0.38577,-0.53011 -0.28164,-0.36876 -11.71936,-4.48861 -12.21873,-4.40116 -0.32007,0.0561 -0.52456,0.18724 -0.45439,0.29154 0.19353,0.28755 10.05476,4.64472 10.98652,4.85436 0.44769,0.10071 1.03306,0.005 1.30083,-0.21463 z m 29.868,6.00101 c 0.13093,-0.66974 -1.12778,-3.14186 -1.72798,-3.39377 -0.63808,-0.26779 -9.88275,-2.75268 -11.17095,-3.00263 -0.92564,-0.17977 -0.96488,0.23965 -0.14846,1.58671 0.65765,1.08512 0.79994,1.15146 6.44648,3.00673 3.17567,1.04345 5.94604,1.94757 6.15635,2.00916 0.21029,0.0616 0.41035,-0.0312 0.44456,-0.2062 z M 76.925207,162.54181 c 0.823554,-0.16023 1.564535,-0.41005 1.646626,-0.55515 0.08206,-0.14512 -0.993264,-0.83313 -2.389658,-1.52893 -2.385784,-1.18877 -2.70123,-1.27243 -5.230516,-1.38721 -1.480401,-0.0672 -2.775606,-0.0314 -2.878247,0.0795 -0.202023,0.21838 5.712458,3.33948 6.732991,3.55304 0.341732,0.0718 1.295228,-0.001 2.118804,-0.16127 z m 12.972728,0.97265 c -0.06969,-0.18498 -0.932458,-0.67902 -1.917157,-1.09783 -1.659439,-0.70581 -1.926404,-0.73499 -3.650731,-0.39885 -1.023211,0.19947 -1.880232,0.46417 -1.904489,0.58825 -0.02423,0.12411 1.197312,0.76167 2.714617,1.41682 l 2.758704,1.19117 1.06293,-0.68162 c 0.584606,-0.37488 1.005861,-0.83296 0.936126,-1.01794 z m 16.070775,4.39233 c 0.0684,-0.34971 -3.05091,-3.15563 -4.00706,-3.60454 -0.39615,-0.18599 -0.74508,-0.21116 -0.77539,-0.0562 -0.10377,0.53113 1.83936,2.99474 2.5918,3.28597 1.34352,0.51998 2.13576,0.65547 2.19065,0.37468 z m 4.49812,0.89614 c -0.516,-0.66594 -5.19721,-3.72567 -5.61697,-3.67134 -0.24637,0.0319 0.33872,0.802 1.32574,1.74501 1.3854,1.32365 2.06561,1.74785 3.15165,1.96545 0.76442,0.15312 1.275,0.13568 1.13958,-0.0391 z m 4.36523,0.83154 c -0.24921,-0.34867 -6.60985,-3.93348 -7.0445,-3.97025 -0.13448,-0.012 0.89672,0.84184 2.29154,1.89602 1.66965,1.2619 2.95594,2.00127 3.76513,2.16424 0.73792,0.14914 1.13271,0.11263 0.98783,-0.09 z m 3.26688,0.23282 c -0.56485,-0.4789 -7.90376,-4.11512 -8.0741,-4.00048 -0.29082,0.19571 7.30567,4.43683 7.88216,4.40061 0.52903,-0.0332 0.55668,-0.0908 0.19189,-0.40014 z m 20.37368,3.49202 c 0.20239,-0.57144 -0.1255,-0.71834 -5.35262,-2.39821 -6.16636,-1.98169 -7.25623,-2.25382 -7.33863,-1.83234 -0.0308,0.15772 0.37999,0.47588 0.9129,0.70704 1.99434,0.86505 10.92309,4.15972 11.23661,4.14626 0.17937,-0.007 0.42316,-0.28794 0.54173,-0.62274 z M 60.613991,158.20107 c 2.570913,0.0485 3.227979,-0.0294 2.986683,-0.35367 -0.05866,-0.0788 -1.429549,-0.85621 -3.046329,-1.72742 -2.43935,-1.31443 -3.415483,-1.6705 -5.735838,-2.09233 -5.176316,-0.94093 -5.263457,-0.74943 -0.82401,1.81108 2.158033,1.24467 3.921577,2.2739 3.918972,2.2872 -0.0024,0.0132 1.212633,0.0471 2.700522,0.0751 z m 39.719759,6.78007 c -0.778355,-1.09998 -1.466203,-1.73446 -1.991777,-1.83719 -0.813249,-0.15897 -0.915158,0.12529 -0.723048,2.0166 0.04474,0.44003 0.869223,0.81819 2.664585,1.22209 l 1.23916,0.27877 -1.18893,-1.68026 z m 20.99923,5.26671 c 0.36946,-0.14382 0.19926,-0.33887 -0.66056,-0.75695 -1.8953,-0.92158 -8.1892,-3.58484 -8.5883,-3.63413 -0.30185,-0.0373 8.09201,4.39578 8.59805,4.54092 0.0843,0.0237 0.37708,-0.0433 0.65081,-0.14984 z m 31.15854,6.17956 c 0.0219,-0.11235 -0.21323,-0.71703 -0.52266,-1.34384 l -0.56257,-1.1396 -6.0197,-1.60272 c -3.31082,-0.8815 -6.10599,-1.54464 -6.21144,-1.47367 -0.10544,0.0709 -0.001,0.47498 0.23204,0.89778 0.36235,0.65734 1.21516,1.03668 5.88385,2.61728 5.96578,2.01972 7.14019,2.35323 7.20048,2.04477 z m -69.611827,-15.05724 1.639321,-0.374 -1.615556,-0.88143 c -1.501386,-0.81913 -1.814217,-0.88475 -4.427055,-0.9288 -1.546336,-0.0261 -2.830624,0.0504 -2.853969,0.16976 -0.06562,0.3359 4.138711,2.36771 4.922172,2.37869 0.382673,0.006 1.433462,-0.15854 2.335087,-0.36426 z m 13.47323,2.75941 c 0.340624,-1.79263 -0.91613,-2.59034 -2.604587,-1.6537 -1.333353,0.73965 -1.325519,1.22633 0.0283,1.75435 2.141059,0.83508 2.400732,0.82495 2.576323,-0.10061 z m 27.040897,5.54564 c 0.40166,-0.15628 0.35566,-0.26411 -0.2218,-0.51989 -1.56425,-0.69284 -8.06136,-3.0553 -8.62337,-3.13559 -0.42723,-0.0611 6.72651,3.2564 8.18756,3.79686 0.083,0.0306 0.37886,-0.0328 0.65761,-0.14138 z m 55.44263,10.90118 c 0.0192,-0.12975 -0.94571,-1.30066 -2.14484,-2.6023 l -2.18027,-2.36665 -5.82492,-1.30034 c -3.70763,-0.82766 -5.80954,-1.18291 -5.78264,-0.97743 0.0232,0.17761 0.83088,1.17174 1.79472,2.20918 l 1.75247,1.88627 5.63762,1.54741 c 3.10069,0.85108 5.87945,1.61312 6.17503,1.69345 0.2956,0.0802 0.55337,0.0401 0.57283,-0.0895 z M 69.348786,158.3305 c 2.290052,0.0108 2.272346,-0.10617 -0.242136,-1.59575 -1.735735,-1.02827 -5.458338,-1.89884 -8.278908,-1.93608 l -1.290319,-0.0171 2.613476,1.52062 c 2.879579,1.67547 4.080251,2.01381 7.197887,2.02824 z m 22.619751,3.95411 c 1.215691,-0.85652 1.257558,-0.98427 0.450129,-1.37312 -0.645922,-0.31108 -4.03019,0.10041 -4.436401,0.53945 -0.235392,0.2544 1.222927,1.12021 2.341314,1.39001 0.350415,0.0845 1.090641,-0.16581 1.644958,-0.55634 z m 46.258943,9.35281 c 0.0283,-0.14478 -0.15071,-0.53352 -0.39779,-0.86386 -0.34502,-0.46128 -1.78522,-0.95591 -6.20732,-2.13183 -5.37504,-1.42934 -6.54852,-1.60469 -6.08037,-0.90864 0.20056,0.29823 9.52602,3.47574 11.47181,3.90885 0.63922,0.14231 1.18537,0.14027 1.21367,-0.005 z m 26.00854,5.04904 c 0.1328,-0.14354 -0.62765,-1.1654 -1.68992,-2.27082 l -1.93143,-2.00981 -5.55831,-1.08652 c -3.05706,-0.59758 -5.57985,-0.97631 -5.60618,-0.84158 -0.0903,0.46219 3.01315,3.24543 3.82197,3.42757 0.96418,0.21709 10.59619,2.91677 10.67065,2.99078 0.0284,0.0282 0.16039,-0.0662 0.29322,-0.20962 z m -39.86417,-8.17322 c -0.27577,-0.40976 -9.45,-3.50732 -9.76333,-3.29645 -0.0863,0.0582 0.039,0.15698 0.27875,0.21958 0.23975,0.0626 2.12607,0.77396 4.19181,1.58078 4.49557,1.75582 5.6959,2.09513 5.29277,1.49609 z m 55.21263,9.46753 c -0.12718,-0.7848 -0.67915,-4.49794 -1.22657,-8.25143 -0.54742,-3.75348 -1.11302,-7.05207 -1.25689,-7.33021 -0.40337,-0.77987 -3.82763,-4.73983 -3.99894,-4.62454 -0.0835,0.0562 0.30773,3.88607 0.86936,8.51089 l 1.02109,8.40878 2.2113,2.49151 c 1.2162,1.37038 2.30144,2.43087 2.41162,2.35672 0.11024,-0.0741 0.0962,-0.77691 -0.031,-1.56172 z M 76.222111,158.45093 c 1.270539,0.0454 2.448681,3.1e-4 2.618094,-0.1002 1.068028,-0.63335 -4.941197,-2.2809 -8.546415,-2.34318 l -1.289289,-0.0223 1.739825,1.02643 c 2.076195,1.22488 2.484768,1.33223 5.477785,1.43916 z m 11.821529,1.99319 c 1.682854,-0.36435 2.23121,-0.81712 1.228466,-1.01434 -1.264216,-0.24835 -6.226779,-0.14829 -6.033218,0.122 0.655629,0.91547 2.831464,1.31958 4.804752,0.89239 z m 62.1289,12.21013 c -0.0762,-0.20233 -0.67398,-0.91428 -1.32825,-1.58215 l -1.18958,-1.21429 -5.71313,-1.02852 -5.71312,-1.02852 1.09984,1.06669 c 1.01862,0.98787 1.52982,1.18415 6.91918,2.65668 3.20061,0.8745 5.8743,1.56932 5.94151,1.54403 0.0673,-0.0252 0.0597,-0.21151 -0.0165,-0.41382 z M 43.059766,151.80262 c 1.434998,0.16623 2.627128,0.20985 2.649215,0.0969 0.02208,-0.11301 -1.477741,-1.1884 -3.332937,-2.38984 l -3.373099,-2.18442 -4.191169,-0.81195 c -2.567002,-0.49688 -4.098308,-0.67793 -3.951483,-0.46642 0.507903,0.73163 7.470397,5.01139 8.502819,5.22658 0.598285,0.12429 2.261694,0.36278 3.696691,0.529 z m 57.883864,11.20297 c -0.0723,-0.19203 -0.2718,-0.37655 -0.44312,-0.41004 -0.17134,-0.0334 -0.25229,0.0962 -0.17989,0.28825 0.0723,0.19202 0.27182,0.37655 0.44314,0.41003 0.17134,0.0334 0.25228,-0.0962 0.17986,-0.28824 z m -2.335386,-0.84058 c -0.07966,-0.61523 -0.731503,-0.84212 -0.83904,-0.29203 -0.05302,0.27129 0.125519,0.53663 0.396804,0.58966 0.271275,0.053 0.470284,-0.0808 0.442236,-0.29763 z m 25.599626,5.08647 c 0.0312,-0.15977 -0.17384,-0.4136 -0.45572,-0.56402 -0.73902,-0.39441 -9.35285,-2.68253 -9.56389,-2.54052 -0.0976,0.0657 0.0192,0.16886 0.25937,0.22946 0.24016,0.0606 2.27993,0.73139 4.53286,1.49069 5.12373,1.72682 5.15864,1.73608 5.22738,1.38439 z M 52.713018,153.04511 c 1.332477,0.14544 2.439144,0.17982 2.459239,0.0765 0.02014,-0.10342 -1.157017,-0.96836 -2.615814,-1.92215 -2.606184,-1.70399 -2.724289,-1.74821 -6.780426,-2.5382 -3.746811,-0.72997 -5.089136,-0.7204 -3.72432,0.026 0.28122,0.15373 1.676245,1.02076 3.100062,1.9266 2.701781,1.71892 3.558755,1.99448 7.561259,2.43131 z m 43.87045,8.27589 c 0.05673,-0.2901 -0.124176,-0.49045 -0.443219,-0.49091 -0.811138,-0.001 -1.060723,0.70576 -0.301566,0.85415 0.382639,0.0747 0.688294,-0.0743 0.744785,-0.36324 z m -11.340292,-2.73808 c 1.026784,0.007 1.799831,-0.0863 1.717871,-0.20799 -0.171686,-0.25512 -3.839146,-0.86879 -6.409471,-1.07252 l -1.751632,-0.13882 0.853257,0.59842 c 0.878029,0.61582 2.104026,0.79588 5.589975,0.82091 z m 9.25972,1.80026 c 0.03347,-0.17134 -0.177464,-0.26976 -0.468805,-0.21875 -0.291333,0.051 -0.596607,0.0796 -0.678362,0.0637 -0.08182,-0.0159 -0.09203,0.12119 -0.02278,0.30483 0.152824,0.40534 1.084762,0.28599 1.16995,-0.1498 z m 41.946794,8.76746 c 0.0155,-0.0785 -0.51053,-0.61783 -1.16859,-1.19867 -1.15199,-1.01675 -1.38955,-1.09378 -6.38689,-2.07063 -4.83838,-0.94578 -6.02169,-0.97167 -4.80223,-0.10509 0.90472,0.64292 12.28426,3.75021 12.35771,3.37439 z m -73.271168,-14.79647 1.912034,0.14546 -1.594022,-1.15876 c -1.394738,-1.01392 -2.15797,-1.29775 -6.105268,-2.27049 -2.962668,-0.73009 -4.532252,-1.00427 -4.572463,-0.79858 -0.03371,0.1722 0.870242,0.94585 2.008677,1.7192 2.205417,1.49819 4.126534,2.04183 8.351042,2.3632 z m 11.197463,1.32595 c 0.09071,-0.061 0.02592,-0.31749 -0.143791,-0.57004 -0.211545,-0.31486 -1.888317,-0.80248 -5.334882,-1.55145 -2.7645,-0.60078 -4.932607,-0.95173 -4.817982,-0.78007 0.114552,0.17168 0.74422,0.67334 1.399139,1.11477 1.003908,0.67664 1.782557,0.88853 4.961783,1.35013 2.074047,0.30115 3.845134,0.49764 3.935733,0.43666 z m 47.990425,9.41035 c -0.23938,-0.43852 -1.14473,-0.70397 -4.70212,-1.37874 -2.42312,-0.45959 -4.2669,-0.74348 -4.09727,-0.63086 0.37476,0.24887 5.49691,1.74313 7.58641,2.21314 1.30904,0.29452 1.47007,0.26745 1.21298,-0.20354 z m -40.546888,-8.31986 2.504934,0.25736 -1.515279,-0.52071 c -0.8334,-0.28638 -2.845448,-0.78882 -4.471225,-1.11654 -2.663813,-0.53697 -2.904999,-0.53901 -2.440654,-0.0204 0.57087,0.63765 2.162145,1.01387 5.922224,1.40019 z m 90.526398,17.35634 c 0.0257,-0.13146 -1.65696,-1.54867 -3.7392,-3.14939 l -3.78594,-2.91041 -3.88496,-0.45046 c -2.13674,-0.24774 -4.34117,-0.53633 -4.89875,-0.64129 -0.55753,-0.10533 -1.03716,-0.0714 -1.0657,0.0747 -0.0285,0.14605 1.44209,1.37073 3.2681,2.7215 l 3.32003,2.45594 5.36984,1.06922 c 2.95338,0.58831 5.39089,0.96162 5.41657,0.8302 z m -26.72431,-5.57162 c 0.0282,-0.14432 -0.97018,-1.00999 -2.21865,-1.92371 l -2.26993,-1.66133 -4.63751,-0.54113 c -2.55063,-0.29763 -4.7159,-0.48839 -4.81172,-0.42391 -0.0958,0.0645 0.6427,0.70826 1.64117,1.43062 1.77879,1.28689 1.92052,1.33421 7.03036,2.3476 2.86816,0.56922 5.23808,0.91611 5.26628,0.77186 z m 13.37827,2.70336 c 0.0192,-0.0977 -1.3314,-1.18141 -3.00107,-2.40852 l -3.03575,-2.23109 -4.51288,-0.65651 c -2.4821,-0.36107 -4.7622,-0.61286 -5.0669,-0.5595 -0.38434,0.0673 0.22443,0.6701 1.98777,1.96829 l 2.5418,1.87126 5.52618,1.09672 c 3.03949,0.6027 5.54178,1.0169 5.56086,0.9193 z m -39.16789,-8.09324 c 0.0308,-0.15772 -0.36618,-0.46989 -0.88224,-0.69373 -1.26163,-0.54722 -8.75085,-1.55132 -8.60072,-1.15315 0.15713,0.41682 9.41024,2.21891 9.48307,1.84637 z m 12.74965,2.6103 c 0.0186,-0.0951 -0.63717,-0.64911 -1.45728,-1.23103 -1.41286,-1.00253 -1.67367,-1.07889 -4.97096,-1.45538 -1.91392,-0.21855 -3.93683,-0.47927 -4.49537,-0.57939 -1.24052,-0.22233 -1.40885,0.21895 -0.33164,0.86938 0.82102,0.49573 11.19502,2.70453 11.25525,2.39642 z m 41.42607,7.13859 c -0.024,-0.45311 -0.46744,-4.34627 -0.98548,-8.65147 l -0.94188,-7.82765 -3.61852,-2.90043 c -1.99019,-1.59524 -3.72884,-2.85885 -3.86366,-2.80802 -0.13481,0.0508 -0.14004,1.45951 -0.012,3.13037 0.12845,1.67085 0.37796,5.39473 0.55448,8.27526 l 0.32094,5.23732 4.05701,3.12755 c 2.23137,1.72015 4.16395,3.15305 4.29466,3.18422 0.13059,0.0317 0.21803,-0.31403 0.19408,-0.76714 z M 59.826152,150.82283 c 0.02735,-0.13978 -0.430924,-0.66314 -1.018314,-1.163 -0.8543,-0.72701 -1.952317,-1.15356 -5.487215,-2.13154 -2.430564,-0.67247 -4.840104,-1.25543 -5.354544,-1.29551 -0.905176,-0.0705 -0.886556,-0.032 0.576931,1.19298 1.197372,1.00227 2.024057,1.40387 3.970016,1.92861 4.069227,1.09724 7.260424,1.73805 7.313114,1.46851 z m 11.478167,2.05303 c -0.258018,-0.28911 -1.116482,-0.7368 -1.907704,-0.99484 -2.327781,-0.75921 -9.296309,-2.46073 -9.331902,-2.27861 -0.0179,0.0922 0.36584,0.54818 0.852956,1.01361 0.803507,0.76775 1.348178,0.93622 5.870725,1.81589 4.236505,0.82445 4.914626,0.89063 4.515925,0.44395 z m 9.069926,2.02467 c -0.849753,-0.4111 -7.359815,-2.05688 -7.396368,-1.86987 -0.09884,0.50586 0.583241,0.73801 4.068445,1.38462 2.074144,0.38479 3.571691,0.6032 3.327923,0.48525 z m -43.230563,-8.81794 c 0.02556,-0.13077 -1.052768,-1.12896 -2.396268,-2.21816 -2.305526,-1.86911 -2.615623,-2.02531 -5.520443,-2.78057 -1.692727,-0.44016 -3.974947,-1.0495 -5.071585,-1.35419 -1.872256,-0.52018 -1.961891,-0.51587 -1.469177,0.0708 0.974253,1.15995 5.001012,4.14885 6.213523,4.61203 1.677421,0.64081 8.187351,1.95965 8.243939,1.67016 z m 11.085561,2.12121 c -0.06552,-0.17369 -0.78688,-0.88615 -1.603091,-1.58324 -1.37703,-1.17607 -1.839095,-1.36459 -6.40982,-2.6152 -2.709194,-0.74128 -5.117183,-1.32299 -5.351077,-1.29272 -0.233907,0.0304 0.629739,0.93553 1.919183,2.01171 l 2.344445,1.95665 4.609713,0.9193 c 2.674308,0.53375 4.559734,0.78667 4.490647,0.60348 z m 66.457587,12.76531 c 1.835,0.16513 2.02076,-0.23801 0.40561,-0.88028 -1.19905,-0.47682 -7.46293,-0.67835 -7.54805,-0.24286 -0.0535,0.27349 2.95106,0.74594 7.14244,1.12314 z m -11.27216,-2.33224 c 0.13934,-0.15065 0.11324,-0.30127 -0.0581,-0.33478 -0.17134,-0.0334 -0.42556,0.0624 -0.56493,0.21299 -0.13933,0.15063 -0.11313,0.3013 0.058,0.33477 0.17134,0.0334 0.42553,-0.0624 0.56492,-0.21298 z M 80.205445,153.9647 c -0.196143,-0.29146 -8.797548,-2.95956 -9.032129,-2.8017 -0.478954,0.32233 0.142489,0.62098 2.922769,1.40461 3.430455,0.96689 6.254431,1.61268 6.10936,1.39709 z m 18.882332,2.8173 c 0.0294,-0.15034 -0.226912,-0.32817 -0.569577,-0.39515 -0.687215,-0.13432 -0.71591,-0.10082 -0.57969,0.67703 0.07294,0.41659 0.20743,0.47646 0.595033,0.26486 0.275437,-0.15034 0.524843,-0.39638 0.554234,-0.54674 z m 2.000033,1.11286 c 0.27378,-0.10675 0.36368,-0.28818 0.21221,-0.42832 -0.14452,-0.13376 -0.56808,-0.0938 -0.94125,0.0887 -0.52177,0.2552 -0.570787,0.35413 -0.21221,0.42833 0.25653,0.0525 0.68,0.0132 0.94125,-0.0887 z m 7.77896,0.97694 c 1.59437,0.0332 3.03761,-0.0306 3.20718,-0.14204 0.16956,-0.11144 -0.38063,-0.51729 -1.22267,-0.90193 -1.43545,-0.6557 -1.66616,-0.67066 -3.69848,-0.23998 -2.11685,0.44862 -2.82477,0.90597 -1.73025,1.11784 0.29994,0.0579 1.84983,0.13281 3.44422,0.16611 z m 17.09183,3.55964 1.91034,0.15409 -1.1379,-0.79673 c -2.47667,-1.73407 -3.39407,-2.01037 -6.77974,-2.04186 -3.80272,-0.0354 -4.07948,0.0367 -2.98715,0.77792 0.91096,0.61814 5.75766,1.64551 8.99445,1.90658 z M 69.483361,151.05378 c 0.03156,-0.1612 -0.07079,-0.4116 -0.227272,-0.55643 -0.333752,-0.30882 -11.592707,-3.97967 -11.828606,-3.85658 -0.08805,0.046 0.05925,0.40918 0.327344,0.8072 0.475864,0.70655 3.262626,1.65958 9.532269,3.25991 0.931834,0.23788 1.794302,0.47893 1.916606,0.53575 0.122304,0.0567 0.248144,-0.0286 0.279659,-0.18984 z m 27.247987,5.1455 c -0.04846,-0.27629 -0.278844,-0.53962 -0.512128,-0.58524 -0.249056,-0.0487 -0.387841,0.12449 -0.336197,0.41941 0.04846,0.27629 0.278844,0.53963 0.512137,0.58522 0.249047,0.0487 0.387844,-0.12445 0.336188,-0.41939 z m -17.43805,-3.44952 c -0.978834,-0.64444 -8.71878,-3.34531 -9.024581,-3.14916 -0.193212,0.12395 -0.290769,0.25072 -0.216774,0.28173 0.07402,0.031 1.977715,0.67806 4.230518,1.43791 4.180314,1.40996 5.593491,1.81313 5.010837,1.42952 z m 14.999121,2.42301 c -0.1608,-0.23895 -0.415999,-0.35125 -0.567093,-0.24957 -0.151096,0.10174 -0.09706,0.34932 0.120208,0.55032 0.511502,0.47327 0.825544,0.26196 0.446875,-0.30075 z m 13.255411,1.34659 c 0.0228,-0.11636 -0.78556,-0.5631 -1.79621,-0.99298 l -1.83752,-0.78154 -1.08048,0.81889 c -1.25036,0.94766 -1.3955,1.29733 -0.66993,1.61401 0.58102,0.25359 5.31912,-0.32577 5.38414,-0.65838 z m 30.14234,7.52613 c 0.72829,0.14172 1.34771,0.13716 1.37643,-0.009 0.0286,-0.14694 -1.41811,-1.13545 -3.21517,-2.19671 l -3.26738,-1.92954 -3.62335,-0.0453 c -1.99285,-0.0248 -3.64297,0.055 -3.66694,0.17766 -0.0239,0.12261 0.9021,0.78282 2.05795,1.46715 1.90863,1.13003 2.41876,1.29174 5.55789,1.76168 1.90102,0.28457 4.05229,0.63326 4.78057,0.77481 z m -81.103035,-16.5066 c 0.167413,-0.85642 -1.739718,-1.87838 -6.084478,-3.26045 -2.464384,-0.78391 -5.02613,-1.61309 -5.692772,-1.84263 l -1.212066,-0.41736 0.926037,1.41618 0.926026,1.41618 4.689657,1.29078 c 6.378366,1.75558 6.377596,1.75541 6.447596,1.3973 z m 92.686205,17.91355 c 2.24897,0.21167 2.26858,0.23084 -3.02212,-2.95174 l -4.11295,-2.4741 -3.6113,-0.0448 c -3.5293,-0.0436 -4.12212,0.0175 -3.86573,0.39842 0.0692,0.10294 1.54641,1.04611 3.28258,2.096 3.08556,1.8659 3.22751,1.91889 6.30373,2.35408 1.73091,0.24484 3.99251,0.52477 5.02579,0.62203 z M 75.649102,150.11956 c -5.087312,-2.25749 -5.00029,-2.22791 -4.928684,-1.6746 0.03168,0.24409 1.582049,0.99494 3.791535,1.83617 5.623576,2.14109 6.155869,2.06546 1.137149,-0.16157 z m 25.635818,5.13389 c 1.41609,-0.92997 1.28931,-1.12448 -1.27375,-1.95438 -1.688319,-0.54666 -1.753687,-0.54119 -1.886068,0.15788 -0.307887,1.62508 -0.08123,2.19043 0.959328,2.39383 0.697567,0.13636 1.35505,-0.0421 2.20049,-0.59732 z m 16.6068,3.76288 c 4.08555,0.0812 4.09767,0.0231 0.38068,-1.82552 l -2.56706,-1.27675 -2.42118,0.5091 c -1.33164,0.28002 -2.47995,0.54515 -2.55182,0.58918 -0.21366,0.13087 2.64797,1.58605 3.48758,1.77346 0.42603,0.0955 2.07844,0.19886 3.67186,0.23054 z m -49.284131,-9.93154 c 0.06214,-0.3244 -9.568809,-4.25481 -11.337365,-4.62677 -1.08372,-0.22785 -1.345362,0.0542 -0.738762,0.79669 0.333283,0.40792 10.534469,4.0197 11.601705,4.10764 0.228064,0.019 0.441564,-0.10605 0.474422,-0.27756 z m 13.580944,3.01443 c -0.171076,-0.2355 -8.770975,-4.4998 -9.272594,-4.59785 -0.636456,-0.12442 -0.679081,0.43236 -0.05902,0.77115 0.747998,0.40875 8.489217,3.72881 9.001607,3.86064 0.239929,0.0617 0.388432,0.0464 0.330057,-0.034 z m 14.654765,1.53264 c 0.176894,-1.54947 0.175429,-1.55088 -2.418903,-2.36041 -0.922334,-0.28774 -1.317891,-0.28965 -1.373279,-0.006 -0.127859,0.65414 2.148351,3.50277 2.919337,3.65348 0.650577,0.12717 0.723729,0.0194 0.872845,-1.28678 z M 43.567647,143.6701 c -1.122971,-1.86565 -1.749027,-2.21822 -6.968899,-3.9248 -6.65636,-2.1762 -6.7784,-2.17715 -5.04348,-0.0388 l 1.371164,1.68994 4.188327,1.21722 c 2.303574,0.66949 4.802495,1.35493 5.553147,1.52322 l 1.364793,0.30603 z m 40.84394,8.50491 c -0.311656,-0.46311 -7.726798,-4.57597 -8.545048,-4.73958 -1.743773,-0.3482 -0.455468,0.57619 3.706644,2.66109 3.936777,1.97203 5.104279,2.47356 4.838404,2.07849 z m 5.657991,1.10696 c 0.01648,-0.0847 -1.015446,-1.15959 -2.293315,-2.38876 -1.656894,-1.59373 -2.627797,-2.29434 -3.38446,-2.44225 -1.987719,-0.38854 -1.513982,0.27586 1.836912,2.57612 3.322306,2.28062 3.78297,2.55108 3.840863,2.25489 z m 3.137577,0.49389 c 0.02889,-0.14787 -0.515272,-1.0547 -1.209287,-2.01515 -1.155887,-1.59962 -1.393765,-1.77205 -2.832745,-2.05335 -0.863994,-0.16887 -1.584233,-0.23877 -1.600572,-0.1552 -0.0372,0.19002 1.836421,1.96497 3.494359,3.31044 1.299774,1.0548 2.057598,1.37697 2.148245,0.91327 z m 66.602105,13.08806 c 1.59004,0.19531 2.90984,0.25858 2.93288,0.14076 0.023,-0.1178 -2.39568,-1.71763 -5.37489,-3.55513 l -5.41677,-3.34091 -3.22327,-0.0256 c -4.39305,-0.0348 -4.82084,-0.002 -4.55578,0.34759 0.19288,0.25452 4.19704,2.75283 7.46426,4.65718 1.03323,0.6022 4.17687,1.28532 8.17357,1.77605 z M 85.304104,151.18904 c -3.968204,-2.92984 -4.995467,-3.51814 -5.993291,-3.43224 -1.118005,0.0962 -1.268345,-0.0229 3.250087,2.5754 4.045413,2.32627 5.237893,2.69873 2.743204,0.85684 z M 31.124406,140.46022 c -0.164361,-0.30109 -0.883859,-1.18234 -1.598868,-1.95832 -1.224736,-1.32917 -1.5505,-1.49483 -5.623768,-2.86006 -6.757691,-2.26497 -6.904827,-2.30821 -6.956494,-2.04388 -0.02687,0.13733 0.748622,1.1957 1.723256,2.352 l 1.772084,2.10233 3.827247,1.10196 c 2.104985,0.60608 4.576077,1.27104 5.491303,1.47767 1.452814,0.32799 1.626245,0.30567 1.36524,-0.17169 z m 80.898334,15.36144 c 0.95954,-0.21566 1.56411,-0.51006 1.42974,-0.69619 -0.12807,-0.17739 -1.55233,-0.9024 -3.16504,-1.61113 l -2.9322,-1.2886 -1.26657,0.82392 c -0.6966,0.45315 -1.24702,0.97482 -1.22314,1.15927 0.0692,0.53512 2.52116,1.62774 4.07281,1.8149 0.78201,0.0943 2.17,0.004 3.0844,-0.20217 z m 15.07227,3.35269 c 1.76094,0.0502 3.22488,-0.0276 3.25324,-0.1726 0.0283,-0.14507 0.0131,-0.27133 -0.0344,-0.28056 -0.0473,-0.009 -1.85738,-0.93817 -4.0226,-2.06431 l -3.93676,-2.04752 -2.46387,0.50313 c -1.35513,0.27673 -2.48678,0.6203 -2.51476,0.76349 -0.0457,0.23399 0.63424,0.6274 4.06775,2.3534 1.47875,0.74337 2.07559,0.84317 5.6513,0.94497 z M 69.309678,147.77612 c 0.280344,-0.30297 0.581452,-0.15282 -6.33038,-3.15704 -4.756129,-2.06727 -5.27363,-2.23405 -5.863901,-1.8899 -0.356064,0.20759 -0.558649,0.49946 -0.45019,0.64859 0.23146,0.31826 9.965914,4.10272 11.411025,4.43628 0.543111,0.12536 1.098151,0.10834 1.233446,-0.0379 z m 95.139432,17.86016 c -0.0318,-1.48166 -0.70378,-11.49545 -0.91816,-13.68192 -0.0978,-0.99745 -0.29868,-2.01291 -0.44641,-2.25657 -0.47592,-0.78506 -9.79347,-6.72581 -10.16097,-6.4785 -0.3445,0.23185 -0.51592,15.82959 -0.17913,16.2988 0.23471,0.32694 10.97377,6.98144 11.47178,7.10851 0.14052,0.036 0.24532,-0.40979 0.23282,-0.99033 z M 55.192686,144.74553 c 0.189428,-0.96906 -0.759935,-1.50205 -6.474384,-3.6349 -3.268563,-1.21993 -6.044664,-2.14952 -6.169149,-2.06576 -0.124421,0.0837 -0.09213,0.61169 0.07185,1.17313 0.284675,0.97448 0.433264,1.06481 3.273326,1.98954 1.636335,0.53279 3.724343,1.23084 4.640028,1.55124 2.289297,0.801 4.598963,1.29025 4.658298,0.98673 z m 49.160134,8.17324 c 1.32794,-0.95757 1.4195,-1.15151 0.72053,-1.52639 -0.95573,-0.51259 -6.469004,-2.45799 -6.639941,-2.34295 -0.09345,0.0629 -0.168511,0.74392 -0.166843,1.51336 0.0037,1.37972 0.02556,1.40854 1.637257,2.09162 2.699837,1.14431 3.188427,1.17333 4.448997,0.26436 z m -33.085787,-6.02634 c 0.04834,-0.24748 -3.03065,-1.87586 -8.502711,-4.49672 -1.972195,-0.94458 -3.806661,-1.16232 -3.713257,-0.44076 0.05687,0.43947 9.240863,4.58331 10.998298,4.96246 0.640045,0.13805 1.187991,0.12686 1.21767,-0.025 z m 64.602457,12.41719 c 3.34588,0.0665 4.53049,-0.0798 3.89148,-0.48067 -0.23767,-0.14914 -2.74535,-1.44452 -5.57261,-2.87873 l -5.1405,-2.60766 -2.61052,0.48391 c -1.43579,0.26617 -2.63013,0.58419 -2.65409,0.70678 -0.0485,0.24773 7.67348,4.32622 8.64781,4.56751 0.33933,0.0841 1.88664,0.17802 3.43843,0.20886 z m -94.469808,-19.3434 c -0.150626,-1.54554 -0.721943,-1.89571 -6.735584,-4.12816 -3.210511,-1.19185 -5.914537,-2.11502 -6.008936,-2.05149 -0.147961,0.0996 0.511491,2.87574 0.700602,2.94938 1.13072,0.44036 10.630982,3.62329 11.24503,3.76749 0.764112,0.17944 0.862301,0.11337 0.798888,-0.53722 z m 55.55162,11.18233 c 0.03947,-0.21463 0.08793,-0.91589 0.10676,-1.55853 l 0.03406,-1.16846 -2.643947,-0.87791 c -1.454167,-0.48284 -3.123406,-0.97163 -3.709419,-1.08618 l -1.065483,-0.20827 1.275985,1.89602 c 1.108634,1.64735 1.490217,1.97115 2.909389,2.46883 2.473011,0.86725 3.013268,0.96062 3.092685,0.53451 z m 20.845438,3.56417 c 1.27725,-0.25348 2.2834,-0.60256 2.23585,-0.77573 -0.0475,-0.17318 -2.14119,-1.2134 -4.65256,-2.31162 l -4.56613,-1.99672 -1.28461,0.83565 c -0.70654,0.45962 -1.3162,0.99726 -1.3548,1.19474 -0.0558,0.28519 5.46297,2.9952 6.96347,3.41944 0.18507,0.0523 1.38154,-0.11229 2.65878,-0.36576 z m -43.54157,-8.21641 c 0.03073,-0.15709 -1.942927,-1.41439 -4.385871,-2.79398 -3.495561,-1.97403 -4.700239,-2.51597 -5.655379,-2.54409 -1.657842,-0.0488 -1.846331,0.30486 -0.513758,0.96406 0.61311,0.30328 2.632164,1.35076 4.486785,2.32772 3.273889,1.72458 5.954423,2.6285 6.068223,2.04629 z m -18.60211,-4.14012 c 0.386992,-0.31618 0.351483,-0.46779 -0.198787,-0.84856 -0.756396,-0.52342 -10.385584,-4.62431 -11.259112,-4.79507 -0.705894,-0.13796 -1.78011,1.21094 -1.235773,1.5518 0.706395,0.44233 9.996971,3.97972 11.098397,4.22572 0.645215,0.14409 1.324845,0.0871 1.595281,-0.1339 z m 34.556374,6.9013 c 0.0342,-0.17516 -0.387172,-1.04876 -0.936463,-1.94133 -0.862229,-1.40109 -1.214,-1.69306 -2.57396,-2.13639 -0.866368,-0.28242 -2.355024,-0.61902 -3.308117,-0.74799 l -1.732913,-0.23447 2.18758,2.04468 c 1.861166,1.73957 2.484344,2.13129 4.176317,2.62509 1.093784,0.3193 2.019451,0.60932 2.057009,0.64465 0.03754,0.0354 0.0962,-0.0791 0.130504,-0.25423 z m -11.784832,-2.58246 c 0.02962,-0.15154 -1.434145,-1.31035 -3.252787,-2.57513 -3.223697,-2.24191 -3.361632,-2.30516 -5.497314,-2.52023 -1.204858,-0.12134 -2.124468,-0.12224 -2.043551,-0.002 0.08086,0.12019 1.867623,1.23275 3.970485,2.47226 3.591913,2.11724 6.68948,3.309 6.823167,2.62511 z m 5.439479,1.05007 c 0.128956,-0.13937 -0.804226,-1.19498 -2.07372,-2.34582 -2.270547,-2.05835 -2.349342,-2.10051 -4.83485,-2.58637 -1.389676,-0.27164 -2.547568,-0.3871 -2.57306,-0.25668 -0.02556,0.13046 1.458126,1.28871 3.296958,2.57388 3.246047,2.26867 5.588632,3.25916 6.184672,2.61498 z m 62.493439,11.68833 c 1.81472,0.0435 3.31896,-0.0204 3.34276,-0.14213 0.0237,-0.12178 -1.57675,-1.05419 -3.55676,-2.07206 -1.98002,-1.01788 -5.08044,-2.61078 -6.88981,-3.5398 l -3.28978,-1.68911 -2.71239,0.54562 c -1.4918,0.3001 -2.73037,0.63773 -2.75238,0.75029 -0.0622,0.318 11.1902,6.03272 11.91528,6.05138 0.35397,0.009 2.12836,0.0522 3.94308,0.0958 z M 27.810305,135.92241 c 0.0181,-0.0924 -0.139782,-0.77159 -0.350835,-1.50909 -0.295581,-1.033 -0.608148,-1.42872 -1.361052,-1.72325 -4.641431,-1.81561 -11.09993,-4.14121 -11.239642,-4.04718 -0.271693,0.18285 0.740599,3.46252 1.147361,3.71722 0.576966,0.3613 8.671644,3.03278 10.29983,3.39926 0.809326,0.18216 1.486258,0.25557 1.504338,0.16303 z m 79.910925,14.43957 c 0.56698,-0.45687 1.05826,-0.97074 1.09173,-1.14193 0.0636,-0.3252 -9.719161,-4.13199 -10.048619,-3.91026 -0.273757,0.18422 -0.48434,2.414 -0.260813,2.76135 0.203712,0.31651 5.876352,2.57791 7.316592,2.91675 0.62306,0.14662 1.16304,-0.0312 1.90111,-0.62591 z m -49.388317,-9.43193 c 0.815503,-0.3988 1.328479,-0.0731 -5.236609,-3.32541 l -5.10051,-2.52683 -1.559723,0.41362 c -0.857864,0.22748 -1.495089,0.50968 -1.416055,0.62709 0.257117,0.38209 10.113876,4.60254 11.390773,4.8773 0.682786,0.1469 1.54774,0.11734 1.922124,-0.0658 z m 65.902777,12.5121 c 2.66325,-0.48575 3.0801,-0.67559 2.34707,-1.06889 -1.34714,-0.72279 -9.64682,-4.33395 -10.99774,-4.78505 -1.43472,-0.47914 -1.56278,-0.46076 -2.78996,0.40015 -0.70743,0.49629 -1.20348,1.02984 -1.10237,1.18567 0.1853,0.28555 8.74635,4.27523 9.74095,4.53952 0.29413,0.0782 1.55506,-0.044 2.80205,-0.2714 z M 41.834228,136.9191 c 0.930848,-1.14069 1.379046,-0.85965 -6.844126,-4.29179 -2.350371,-0.98098 -4.449692,-1.81805 -4.665161,-1.86017 -0.403353,-0.0788 -1.732015,1.8453 -1.506052,2.18106 0.186151,0.27663 10.076281,3.96343 11.422972,4.25822 0.838945,0.18367 1.271787,0.10558 1.592367,-0.28732 z M 151.478,157.76442 c -0.0108,-0.91139 0.11661,-12.63764 0.15828,-14.51378 0.0126,-0.57077 -0.19126,-1.15016 -0.45321,-1.28752 -8.44167,-4.42678 -12.49116,-6.48025 -12.61491,-6.39697 -0.17938,0.12074 -1.87612,13.79781 -1.86932,15.06806 0.004,0.59607 0.24671,0.95932 0.80767,1.20478 0.44171,0.1933 3.44391,1.73217 6.67155,3.41978 3.22766,1.68759 6.19302,3.14235 6.5897,3.23279 0.62667,0.14276 0.7198,0.0474 0.71023,-0.72714 z M 61.838619,140.45751 c 0.902572,-0.0165 1.591538,-0.16125 1.531028,-0.32178 -0.06057,-0.16051 -2.123877,-1.43089 -4.58524,-2.82306 l -4.47521,-2.53125 -2.164387,0.11492 c -1.190417,0.0632 -2.184532,0.21801 -2.209162,0.34396 -0.03322,0.17028 8.675616,4.64768 10.050871,5.16733 0.116118,0.0437 0.949527,0.0664 1.8521,0.0497 z m 35.349169,6.19042 c 0.367749,-1.88132 0.08218,-2.08906 -5.179987,-3.76802 -2.644474,-0.84376 -4.894471,-1.44079 -5.000003,-1.32673 -0.10558,0.11408 0.292435,0.99769 0.884374,1.96363 l 1.076245,1.75628 3.004486,0.96418 c 5.032275,1.61493 4.980271,1.61084 5.214885,0.41066 z m -28.82526,-5.85371 c 0.896861,0.17287 1.488499,0.15126 1.462071,-0.0529 -0.02435,-0.18866 -1.579841,-1.41395 -3.456497,-2.72286 L 62.956,135.63861 60.417717,135.38788 c -1.396057,-0.13791 -2.813587,-0.2942 -3.150049,-0.34733 -1.202735,-0.18987 -0.102568,0.63877 4.078872,3.07225 2.31275,1.34594 4.498518,2.43462 4.857269,2.41929 0.358742,-0.0155 1.330173,0.10268 2.158719,0.26219 z m 18.886614,3.75346 c 0.02664,-0.13637 -0.534619,-1.11929 -1.247291,-2.18429 -1.148212,-1.71588 -1.443599,-1.96525 -2.593994,-2.19012 -0.714013,-0.13959 -2.811342,-0.63243 -4.660742,-1.09517 -3.840482,-0.96098 -3.836162,-0.97958 -0.480252,2.06352 1.691155,1.53349 2.1204,1.7606 4.705131,2.48931 4.163915,1.17392 4.224304,1.18687 4.277099,0.91674 z m 44.107508,7.53503 c 1.48731,-0.27073 2.72308,-0.58883 2.74615,-0.7069 0.0354,-0.18088 -3.5856,-1.83173 -14.32996,-6.53331 l -1.71533,-0.7506 -1.49383,1.05437 c -0.82161,0.57991 -1.51379,1.14849 -1.53819,1.26352 -0.025,0.11492 1.46227,0.87746 3.3037,1.69427 1.84145,0.81682 4.75427,2.10894 6.47294,2.87137 1.71866,0.76243 3.28807,1.43422 3.48759,1.49287 0.1995,0.0587 1.57962,-0.11492 3.06693,-0.38559 z M 27.840127,131.59113 c 0.93843,-1.18379 0.940302,-1.66556 0.0084,-2.06695 -0.451188,-0.19429 -2.966962,-1.28398 -5.590612,-2.4216 -2.623648,-1.13761 -5.057067,-2.12684 -5.407602,-2.19827 -0.994778,-0.20301 -2.440584,2.48477 -1.614848,3.00184 0.201612,0.12619 2.127572,0.8829 4.279943,1.68146 2.152356,0.79858 4.590098,1.71272 5.41719,2.03142 0.827079,0.31873 1.672332,0.6287 1.878359,0.68888 0.206015,0.0602 0.669279,-0.26239 1.029496,-0.71678 z m 16.60627,3.55808 c 1.892382,-0.54151 1.997243,-0.82736 0.559571,-1.52552 -0.695326,-0.33765 -2.855923,-1.40556 -4.801307,-2.37312 -5.383001,-2.67728 -4.993874,-2.56836 -6.913538,-1.93496 -0.941465,0.31064 -1.693508,0.71391 -1.67123,0.89615 0.03264,0.26748 9.650661,4.77616 11.098672,5.20278 0.216943,0.0639 0.994466,-0.0554 1.727832,-0.26533 z m 33.571264,6.96195 c 0.02279,-0.12896 -1.041323,-1.20807 -2.363507,-2.39782 l -2.403958,-2.16316 -3.936392,-0.53155 -3.936379,-0.53156 3.265816,2.31962 c 3.202619,2.27473 3.324526,2.3314 6.299887,2.92938 1.668627,0.33594 3.052291,0.50411 3.074533,0.37509 z m 33.372129,5.47825 c 0.79947,-0.55196 1.39648,-1.08843 1.32668,-1.19214 -0.12747,-0.18941 -9.2039,-3.65042 -12.26945,-4.67856 l -1.639479,-0.54988 -0.08709,1.53073 c -0.04797,0.84188 -0.04354,1.59545 0.0096,1.67457 0.135082,0.20074 9.454159,3.81006 10.418179,4.03502 0.53401,0.12454 1.25612,-0.13949 2.2414,-0.81974 z m 65.37807,12.18852 c 0.0491,-0.25176 -1.04503,-7.99864 -1.8881,-13.3671 -0.4023,-2.56177 -0.61192,-3.06345 -2.16742,-5.18725 -0.94714,-1.29316 -1.79821,-2.21848 -1.89128,-2.05629 -0.14943,0.26047 1.13022,11.3144 1.75363,15.148 0.17258,1.06121 0.69521,2.00289 1.95763,3.52733 1.69754,2.04983 2.13852,2.43158 2.23554,1.93531 z M 50.254441,134.1879 c 1.049024,-0.0435 1.992517,-0.13642 2.096658,-0.20652 0.260837,-0.17553 -1.090726,-1.04442 -5.50372,-3.53818 l -3.77114,-2.13104 -3.062058,0.13334 c -1.684137,0.0733 -2.966625,0.26748 -2.849974,0.43139 0.116608,0.16391 1.736625,1.06085 3.599941,1.99322 1.86333,0.93237 3.982265,2.00482 4.708733,2.3832 1.697141,0.88399 2.450504,1.03124 4.78156,0.93459 z m 47.002745,8.77339 c 0.295771,-1.55689 0.09524,-2.28222 -0.72794,-2.62605 -1.465673,-0.6122 -12.22822,-3.91896 -12.598931,-3.87097 -0.20186,0.0262 0.17427,0.90946 0.835814,1.96296 l 1.202805,1.91549 4.401755,1.47188 c 2.420969,0.80953 4.924102,1.59163 5.562538,1.73803 1.069984,0.24533 1.173524,0.19907 1.323959,-0.59134 z m 38.146554,6.72274 c 0.63074,-3.2267 1.76811,-14.41446 1.50372,-14.79128 -0.43932,-0.62616 -14.01073,-6.63505 -14.39758,-6.37473 -0.24636,0.16579 -1.64428,5.07426 -2.98546,10.48267 l -1.07434,4.33234 6.95989,3.07695 c 3.82793,1.6923 7.35831,3.27231 7.84525,3.51111 1.65669,0.81245 1.94969,0.78012 2.14852,-0.23706 z M 32.258545,128.62678 c 0.737622,-0.27517 1.301526,-0.5541 1.253096,-0.61984 -0.04834,-0.0658 -2.655979,-1.36943 -5.794561,-2.89709 l -5.706518,-2.77755 -2.057407,0.75768 c -2.360833,0.86941 -2.703759,1.12905 -1.979142,1.4985 0.509331,0.25968 9.484484,4.15887 10.661295,4.63172 0.696116,0.27973 1.741794,0.10845 3.623237,-0.59342 z m 82.441345,16.46569 c 1.23219,-0.80811 1.90798,-1.66359 1.39358,-1.76414 -0.094,-0.0183 -3.90241,-1.4323 -8.46285,-3.14202 -4.56043,-1.70971 -8.392408,-3.0408 -8.515504,-2.95795 -0.123138,0.0828 -0.224847,0.8389 -0.226107,1.68013 l -0.0024,1.52955 7.066051,2.73249 c 3.88633,1.50287 7.12776,2.75771 7.20318,2.78851 0.0753,0.0307 0.77016,-0.35915 1.5439,-0.86658 z M 58.72757,134.52088 c 1.26365,0.13272 2.317678,0.13829 2.342284,0.0124 0.02458,-0.12582 -1.517485,-1.30286 -3.426832,-2.61564 l -3.471554,-2.38683 -3.727894,-0.50038 c -6.135414,-0.82352 -6.152509,-0.77697 -0.863308,2.35067 3.281316,1.94034 4.941569,2.75532 5.734136,2.81479 0.613577,0.046 2.149489,0.19228 3.413168,0.32497 z m 25.323955,4.8766 c 0.02641,-0.13492 -0.491073,-1.03336 -1.14989,-1.99649 l -1.197853,-1.75114 -5.236896,-1.37974 c -2.8803,-0.75885 -5.720867,-1.42643 -6.312363,-1.48352 -1.055335,-0.10174 -1.029602,-0.0617 1.372328,2.14339 2.325984,2.13534 2.577704,2.28258 5.057718,2.95874 4.00656,1.09234 7.413777,1.7808 7.466956,1.50873 z m -12.050719,-2.87681 c 0.01343,-0.0684 -1.085471,-1.15639 -2.441854,-2.41778 l -2.466161,-2.29347 -4.442577,-0.83015 c -6.891611,-1.28773 -6.993769,-1.23812 -3.111065,1.51196 l 3.257637,2.30732 4.589857,0.92323 c 2.524425,0.50776 4.600785,0.8673 4.614163,0.7989 z m -33.819674,-8.77261 c 1.590122,-0.0597 2.910434,-0.20746 2.934044,-0.32824 0.02362,-0.1208 -2.101579,-1.45893 -4.722635,-2.97366 l -4.765571,-2.75404 -2.566055,0.13934 c -4.872203,0.26453 -5.107981,0.29508 -4.880938,0.63245 0.279277,0.415 9.369932,4.99191 10.374641,5.22336 0.404474,0.0931 2.036402,0.12051 3.626514,0.0609 z m 59.113123,11.8246 c 0.01567,-0.13033 0.116118,-0.69285 0.222367,-1.25018 0.106536,-0.55729 0.108571,-1.23049 0.0047,-1.49587 -0.1326,-0.34026 -2.420118,-1.18943 -7.759834,-2.88056 -4.164493,-1.31892 -7.94337,-2.54465 -8.397505,-2.72384 -1.234659,-0.48718 -1.156932,0.20135 0.255858,2.26673 l 1.23533,1.80593 6.789555,2.22582 c 6.992953,2.29248 7.599409,2.45517 7.649133,2.05198 z m 74.410355,14.5453 c 0.14861,-1.12099 -2.12318,-16.66966 -2.47942,-16.97 -2.54327,-2.144 -5.72502,-4.56344 -5.87158,-4.46481 -0.27206,0.18308 0.7539,15.55 1.07781,16.14335 0.25975,0.47582 6.49282,5.49021 6.99047,5.62371 0.12667,0.0345 0.25398,-0.11553 0.28272,-0.33225 z m -54.30197,-12.55511 c 0.80746,-2.19612 3.53631,-13.52561 3.33102,-13.82954 -0.32058,-0.47464 -15.19094,-5.94346 -15.51433,-5.70564 -0.44547,0.32759 -5.863086,13.64099 -5.670497,13.93484 0.09694,0.14782 2.880397,1.30677 6.185547,2.57544 3.30518,1.26868 6.68527,2.57172 7.51134,2.89568 0.82605,0.32394 2.01816,0.70618 2.64915,0.8494 1.06404,0.24162 1.17335,0.18941 1.50777,-0.72018 z m -68.778272,-13.4099 c 1.970722,0.18183 3.540896,0.21862 3.489299,0.0817 -0.0516,-0.13686 -1.77824,-1.41446 -3.836978,-2.83913 l -3.743152,-2.59029 -5.13164,-0.45187 c -2.822394,-0.2485 -5.200967,-0.4074 -5.285697,-0.35305 -0.291632,0.187 0.0895,0.45002 4.121292,2.84381 4.445577,2.63949 4.980796,2.81 10.386876,3.3088 z m 32.199574,6.24761 c 0.04307,-0.22061 -0.460302,-1.18173 -1.118712,-2.13582 l -1.197097,-1.73475 -3.98627,-1.11573 c -7.065606,-1.97759 -11.534227,-3.03726 -11.590671,-2.74855 -0.04186,0.21439 3.307298,3.43708 4.716695,4.53852 0.127655,0.0998 2.885158,0.88358 6.127761,1.7418 3.242614,0.85822 6.137359,1.62684 6.432771,1.70802 0.295411,0.0812 0.572396,-0.0329 0.615523,-0.25349 z M 21.237705,121.56584 c 0.03036,-0.15539 0.349213,-0.31627 0.708543,-0.35751 0.359327,-0.0413 1.728237,-1.08137 3.042023,-2.31139 1.313786,-1.23001 3.679572,-3.30842 5.25729,-4.61867 2.949098,-2.44918 4.947807,-4.68723 4.620378,-5.17376 -0.102101,-0.15163 -0.823578,0.25207 -1.603415,0.89708 -0.779838,0.64504 -2.562468,1.99658 -3.961404,3.00346 -1.398911,1.00686 -2.570635,1.96954 -2.603819,2.13926 -0.06873,0.35187 -4.297051,4.24619 -6.189205,5.70038 -1.570784,1.20721 -1.704364,1.69854 -0.354567,1.30426 0.565942,-0.16532 1.053849,-0.42773 1.084213,-0.5831 z m 44.156874,9.02231 c 0.04511,-0.25595 -1.12658,-1.4369 -3.554686,-3.58149 -1.524962,-1.34688 -1.646208,-1.39597 -4.944943,-2.00213 -1.859885,-0.34181 -4.871424,-0.81748 -6.692299,-1.05712 l -3.310646,-0.43572 2.265857,1.6444 c 1.246221,0.90441 2.773232,2.02688 3.393361,2.49436 0.989979,0.74631 1.839469,0.9916 6.964509,2.01104 3.210369,0.63855 5.855851,1.05556 5.878847,0.92666 z M 27.606497,120.9935 c 1.848563,-0.0971 3.51834,-0.24369 3.710607,-0.32576 0.378079,-0.16139 8.145314,-7.47163 10.652299,-10.02556 0.844558,-0.86038 1.48038,-1.64634 1.4129,-1.74659 -0.06743,-0.10021 -0.556921,-0.12878 -1.08769,-0.0635 -0.530779,0.0653 -2.021668,0.21231 -3.313082,0.32664 -2.185648,0.19352 -2.466183,0.31321 -4.056763,1.73093 -0.939809,0.83765 -1.801752,1.57761 -1.915429,1.64433 -0.113595,0.0669 -1.297529,1.10944 -2.630774,2.31714 -1.333254,1.20771 -3.271515,2.9391 -4.307234,3.84753 -2.357174,2.06746 -2.586893,2.32264 -2.165243,2.40506 0.18666,0.0365 1.851848,-0.0131 3.700409,-0.11024 z m 70.287192,14.33033 c 0.313611,-0.34376 5.868921,-13.88917 5.761661,-14.04855 -0.20736,-0.30811 -15.262964,-4.96611 -15.520167,-4.80173 -0.475332,0.30377 -8.016041,13.10944 -7.857929,13.34437 0.13205,0.19622 14.911333,5.08718 16.752816,5.54407 0.371699,0.0923 0.760321,0.0751 0.863619,-0.0381 z m 65.361521,11.80625 c -0.0181,-0.49268 -0.10062,-1.63673 -0.1836,-2.54232 -0.0829,-0.90559 -0.32267,-4.15425 -0.53277,-7.21921 -0.21012,-3.06497 -0.51992,-5.76413 -0.68847,-5.99815 -0.37458,-0.52001 -7.76169,-5.1943 -8.40886,-5.3208 -0.25501,-0.0499 -0.48354,0.0147 -0.50783,0.1433 -0.0744,0.39285 -0.22334,14.39174 -0.15962,14.9817 0.0329,0.30353 0.60791,0.8798 1.27805,1.2806 0.67014,0.40082 2.90281,1.7907 4.96149,3.08864 2.05867,1.29794 3.8626,2.38737 4.00873,2.42095 0.14616,0.0334 0.25092,-0.34201 0.23285,-0.83471 z M 39.692102,121.43716 c 3.520319,0.31402 4.748715,0.30663 5.218997,-0.0313 0.528419,-0.37974 3.592312,-3.6746 9.293684,-9.99421 0.788643,-0.87419 1.366966,-1.68889 1.285162,-1.81046 -0.147148,-0.21864 -8.281978,-0.91616 -9.651741,-0.82759 -0.390279,0.0253 -1.527956,0.85448 -2.528238,1.84279 -1.00026,0.98827 -3.706204,3.60102 -6.013197,5.80611 -2.306992,2.20507 -4.211442,4.09575 -4.232115,4.20152 -0.04175,0.21344 0.10269,0.23117 6.627448,0.81318 z m 41.648525,3.37421 c 4.141828,-6.79542 5.139462,-8.55591 4.981528,-8.79059 -0.192032,-0.28536 -8.357902,-2.45047 -11.807697,-3.1307 l -2.805872,-0.55338 -4.866915,6.32017 c -4.636884,6.02143 -4.835403,6.33402 -4.200217,6.6139 0.524038,0.23091 10.769889,2.9829 15.021017,4.0346 0.780055,0.19296 0.942017,-0.005 3.678169,-4.49409 z m -15.998773,-6.28062 c 3.391828,-4.40849 4.766423,-6.41344 4.535782,-6.61581 -0.182021,-0.1597 -3.080833,-0.74085 -6.441829,-1.29147 l -6.110882,-1.00111 -2.187399,2.35368 c -4.189994,4.50848 -9.056908,9.89575 -9.089205,10.06096 -0.0179,0.0915 3.220831,0.76325 7.197145,1.49279 l 7.229667,1.32643 z m 86.377896,21.49328 c -0.006,-1.50284 0.0759,-12.76809 0.10103,-14.00642 l 0.0238,-1.16591 -4.87955,-2.60668 c -2.68375,-1.43366 -5.22261,-2.71302 -5.64188,-2.84299 -0.6924,-0.21468 -0.77668,-0.13533 -0.91863,0.86505 -0.086,0.60575 -0.52822,3.92036 -0.9828,7.36575 l -0.82652,6.26437 0.92653,0.61878 c 1.20265,0.80319 11.25346,6.17478 11.79027,6.30124 0.28524,0.0669 0.41005,-0.17572 0.4078,-0.79319 z m -14.1041,-7.88015 c 0.7,-5.52338 1.62823,-13.86302 1.5551,-13.9717 -0.21586,-0.32075 -12.41932,-5.49406 -12.62832,-5.35342 -0.19402,0.13059 -3.13018,10.83361 -3.68379,13.42841 -0.16288,0.76315 -0.0264,0.87135 2.57763,2.04372 1.51228,0.68083 4.68871,2.11344 7.05875,3.18356 2.37002,1.07012 4.45654,1.9361 4.6367,1.92438 0.18017,-0.012 0.39794,-0.57645 0.48393,-1.25495 z m 35.60335,3.35057 c -0.42612,-2.88485 -0.9516,-6.54334 -1.1677,-8.12999 -0.35992,-2.6424 -0.51539,-3.0335 -1.85053,-4.65451 -0.80169,-0.97332 -1.52736,-1.72274 -1.61263,-1.66537 -0.0853,0.0574 0.26937,3.58658 0.78806,7.84265 l 0.94309,7.73833 1.46113,1.98293 c 0.80362,1.09061 1.63038,2.01629 1.83726,2.05705 0.23633,0.0466 0.0882,-1.87544 -0.39868,-5.17109 z m -51.84931,-9.3976 c 0.52519,-0.83873 3.65454,-13.69666 3.41846,-14.04583 -0.23124,-0.34201 -13.00202,-5.26291 -13.24099,-5.10207 -0.37979,0.25558 -5.75205,13.35199 -5.58122,13.60582 0.10389,0.15431 13.76487,5.5724 14.78855,5.86529 0.19254,0.055 0.4694,-0.0903 0.6152,-0.32321 z m 48.12422,9.67631 c 0.0213,-0.10916 -0.42553,-3.84476 -0.99303,-8.30148 -1.14381,-8.98267 -0.76115,-8.02661 -4.39302,-10.97575 -1.00607,-0.81694 -1.91191,-1.42971 -2.01296,-1.36168 -0.16198,0.10905 0.32958,8.60102 0.79944,13.81099 l 0.1704,1.88967 2.96266,2.51704 c 2.92508,2.48512 3.39048,2.81018 3.46651,2.42121 z M 38.364869,106.87005 c 0.509116,-0.56751 2.438231,-2.37206 4.286924,-4.01009 4.278205,-3.790694 5.93318,-5.381357 6.010497,-5.776854 0.107004,-0.547311 -0.920197,0.188878 -4.827627,3.459974 -3.787433,3.17064 -7.115436,6.34844 -7.222588,6.89659 -0.138867,0.71043 0.910382,0.36943 1.752794,-0.56962 z m 4.155888,0.95047 2.626936,-0.20275 5.88181,-5.5644 c 3.235009,-3.060415 5.859116,-5.689114 5.831342,-5.841542 -0.08985,-0.493028 -5.964969,0.395005 -6.698418,1.012506 -2.366039,1.991956 -11.342583,10.119436 -11.559874,10.466436 -0.292497,0.46711 -0.404339,0.46342 3.918204,0.12977 z m 62.319313,11.0735 c 1.3489,-2.83205 5.15867,-12.31228 5.02669,-12.50843 -0.22824,-0.33916 -12.562237,-4.0624 -13.128863,-3.96317 -0.275004,0.0482 -1.276273,1.37013 -2.225043,2.93769 -3.896983,6.43863 -5.627812,9.53721 -5.460041,9.77475 0.184687,0.26148 12.096617,4.1519 14.109407,4.60813 1.0783,0.24439 1.18212,0.19182 1.67785,-0.84897 z M 52.287841,108.04666 c 2.220726,0.16245 4.201704,0.27183 4.402175,0.24303 0.285912,-0.041 5.568549,-5.51998 10.600067,-10.993924 0.323867,-0.352346 0.537487,-0.716952 0.474711,-0.810236 -0.06272,-0.09333 -2.021598,-0.289559 -4.352929,-0.436201 -3.406666,-0.214257 -4.381434,-0.164035 -4.96537,0.255833 -0.863477,0.62085 -11.411445,10.756998 -11.461733,11.014238 -0.05339,0.27302 0.921709,0.40674 5.303079,0.72726 z M 161.9571,129.65831 c 0.15329,-0.78424 -1.01731,-15.28786 -1.26637,-15.68998 -0.26392,-0.42613 -6.04496,-4.33537 -7.02739,-4.75205 -0.25596,-0.10857 -0.46377,0.0149 -0.4848,0.28792 -0.14312,1.85761 -0.26596,14.20886 -0.14453,14.53096 0.1278,0.33896 7.94719,5.64585 8.63425,5.85991 0.12576,0.0391 0.25573,-0.0674 0.28884,-0.23676 z M 87.902383,113.80436 c 1.565746,-2.37381 7.078595,-11.85049 6.979456,-11.9978 -0.183527,-0.27273 -12.279874,-3.198593 -12.648825,-3.059492 -0.537595,0.202674 -9.356507,12.014022 -9.178985,12.293592 0.161268,0.25401 7.8137,2.30212 11.969048,3.20343 l 2.265196,0.49132 z m -16.791518,-3.12555 c 0.506307,-0.20447 9.691988,-12.105163 9.529664,-12.346362 -0.06684,-0.09921 -2.630199,-0.548237 -5.696539,-0.997766 l -5.575158,-0.817338 -2.645171,2.878753 c -1.454839,1.583323 -3.920855,4.266673 -5.48005,5.963003 l -2.83487,3.08423 6.152822,1.19783 c 3.384004,0.65905 6.331231,1.12576 6.549291,1.03769 z m 80.772965,12.07476 c -0.0165,-0.40348 0.012,-3.63607 0.0634,-7.18351 0.0516,-3.54745 0.0679,-6.70571 0.0361,-7.01836 -0.0408,-0.40185 -1.31687,-1.25006 -4.35428,-2.89419 -2.36319,-1.27917 -4.46094,-2.41628 -4.66165,-2.52692 -0.26351,-0.14525 -0.45992,0.29423 -0.70667,1.58149 -0.36976,1.92912 -1.61694,12.70547 -1.49081,12.88198 0.0423,0.0592 2.24776,1.28661 4.90104,2.72763 2.65328,1.44102 4.95514,2.69446 5.11522,2.78544 0.80257,0.45607 1.12661,0.35167 1.0975,-0.35356 z m -12.21525,-7.07724 c 0.0325,-0.66071 0.37226,-3.68691 0.75508,-6.72493 0.38281,-3.038 0.64593,-5.8325 0.5847,-6.20999 -0.0917,-0.56519 -0.83818,-1.01266 -4.22886,-2.53505 -2.26465,-1.016796 -4.61506,-2.031005 -5.22317,-2.253814 l -1.10561,-0.405083 -0.51266,1.635469 c -1.35022,4.307338 -3.13249,11.763938 -2.89587,12.115548 0.28883,0.42917 10.3741,5.06506 11.68973,5.37341 0.84187,0.19731 0.88003,0.15674 0.93666,-0.99556 z m 30.73784,1.15728 c -0.42731,-2.8851 -0.92432,-6.36594 -1.10444,-7.73524 -0.24473,-1.86031 -0.60137,-2.90705 -1.41094,-4.14113 -0.59587,-0.90834 -1.18786,-1.58123 -1.31553,-1.49531 -0.12766,0.0859 0.1972,3.63526 0.72195,7.8874 0.94877,7.68799 0.96072,7.73926 2.13802,9.17543 0.65116,0.79431 1.31081,1.469 1.46591,1.49932 0.1551,0.0304 -0.0677,-2.3054 -0.49497,-5.19047 z m -44.4038,-8.13974 c 1.06106,-3.49268 3.04013,-11.992897 2.80302,-12.039252 -0.12677,-0.02482 -2.67498,-0.965013 -5.66269,-2.089413 -2.9877,-1.124409 -5.495,-2.002102 -5.57176,-1.950434 -0.18874,0.127005 -4.83417,11.162909 -5.17603,12.296389 -0.26968,0.89436 -0.25647,0.90619 1.98412,1.76968 8.31475,3.2044 10.41571,3.98557 10.70321,3.97963 0.1786,-0.004 0.59266,-0.88866 0.92013,-1.9666 z M 56.118629,95.02967 c 1.195907,-0.102466 2.458889,-0.38687 2.806604,-0.631921 1.061803,-0.748336 11.158765,-10.546303 11.043948,-10.71692 -0.05915,-0.08783 -1.258436,-0.0075 -2.665169,0.178135 l -2.557718,0.337791 -3.214014,2.816127 c -5.831618,5.109726 -8.886045,7.888811 -8.9327,8.127505 -0.02531,0.129466 0.266883,0.199479 0.649317,0.15553 0.382447,-0.04391 1.67381,-0.163688 2.869719,-0.266188 z m 111.118081,22.50985 c 0.13293,-0.67989 -1.86303,-15.6588 -2.13003,-15.98525 -0.67134,-0.82082 -3.87612,-3.423171 -4.06177,-3.298252 -0.18906,0.127248 -0.0595,3.246302 0.4606,11.089752 l 0.26027,3.92487 2.48731,2.16308 c 2.52208,2.19331 2.91264,2.46896 2.98362,2.1058 z M 55.526317,91.446299 c 1.578043,-1.414792 3.822581,-3.404745 4.98784,-4.422095 1.165259,-1.017363 2.140602,-1.961837 2.167413,-2.09884 0.101614,-0.518788 -1.016118,0.131683 -2.449315,1.425451 -0.818168,0.738564 -2.281464,1.977953 -3.251794,2.754199 -1.868558,1.4948 -4.673641,4.224033 -4.751666,4.623155 -0.122182,0.625084 0.655041,0.08721 3.297522,-2.28187 z m 57.716103,7.582827 c 1.39272,-3.329757 2.57491,-6.28393 2.6271,-6.564802 0.10892,-0.588449 -0.39629,-0.791655 -6.75111,-2.714316 -3.47284,-1.050695 -4.34806,-1.229859 -4.66455,-0.954823 -0.50448,0.43835 -7.170007,12.024225 -7.033991,12.226325 0.152845,0.22712 9.874121,3.31052 11.710531,3.71435 l 1.57978,0.34744 z M 65.542773,95.105991 c 1.850036,0.09034 3.550694,0.02448 3.779237,-0.146558 0.465687,-0.348374 8.755019,-9.25445 9.56275,-10.274216 0.284962,-0.359749 0.456176,-0.746106 0.380503,-0.858565 -0.07569,-0.112457 -1.777964,-0.27506 -3.78285,-0.361342 L 71.837161,83.308416 68.29158,86.69535 c -5.163971,4.932918 -8.138958,7.858876 -8.174275,8.039541 -0.0171,0.08721 0.439873,0.169468 1.015374,0.182714 0.575515,0.01322 2.560044,0.09801 4.410082,0.188431 z m 15.607338,2.092676 c 0.485941,-0.0037 1.751906,-1.444523 4.898466,-5.575158 2.333732,-3.063614 4.273694,-5.746157 4.311003,-5.961207 0.0738,-0.427597 -4.139179,-1.321988 -7.528652,-1.598269 l -1.820382,-0.148369 -5.138491,5.553717 c -2.826159,3.054532 -5.160659,5.667144 -5.187758,5.805787 -0.04775,0.244188 9.143921,1.933532 10.465814,1.923516 z m 15.657163,1.690234 c 2.235623,-3.53641 6.296696,-10.592728 6.188706,-10.753209 -0.16408,-0.243807 -10.365253,-2.626615 -10.695167,-2.498195 -0.573067,0.223062 -9.080843,11.596224 -8.888468,11.882075 0.201106,0.298818 2.852168,0.976316 9.055662,2.314223 l 3.292952,0.710185 z M 160.8031,111.72184 c -0.0347,-0.31804 -0.20358,-2.80862 -0.37555,-5.53463 -0.46157,-7.31747 -0.60658,-8.767545 -0.92379,-9.238187 -0.35399,-0.525202 -5.79744,-4.306204 -5.99847,-4.166495 -0.0799,0.05555 -0.19882,3.394395 -0.26422,7.419652 l -0.11888,7.31865 3.46345,2.29956 c 3.82983,2.54282 4.31082,2.75967 4.21747,1.90145 z m -8.8237,-5.4724 c 0.1485,-0.75971 0.27735,-13.111412 0.14484,-13.882226 -0.10496,-0.610294 -0.8011,-1.119371 -3.59604,-2.629729 -1.90627,-1.030111 -3.64447,-1.90757 -3.8627,-1.949912 -0.30178,-0.05868 -0.46901,0.508872 -0.6985,2.370479 -1.12437,9.120576 -1.35108,11.316408 -1.19153,11.539858 0.16116,0.22568 8.33117,4.72506 8.89366,4.89792 0.12585,0.0386 0.26548,-0.1172 0.31028,-0.34639 z m -9.99351,-10.101033 c 0.30238,-2.425804 0.67186,-5.51399 0.82111,-6.862687 l 0.27132,-2.452158 -1.06896,-0.522775 c -3.07787,-1.505276 -7.56038,-3.431559 -7.72599,-3.320099 -0.2144,0.144299 -3.68595,13.061747 -3.56045,13.248244 0.22681,0.337025 10.21504,4.625508 10.44487,4.484568 0.1476,-0.0906 0.51572,-2.149312 0.81803,-4.575105 z M 70.404385,78.152869 c 5.37999,-4.809942 5.417131,-4.847077 4.726461,-4.726128 -0.718823,0.125886 -11.397263,9.42618 -11.515093,10.028964 -0.11156,0.570994 2.503542,-1.4718 6.788632,-5.302836 z m 97.878385,25.005301 c -0.0234,-0.49376 -0.514,-4.023188 -1.09002,-7.843177 -0.73052,-4.84437 -1.25239,-7.269974 -1.72516,-8.018248 -0.37278,-0.590057 -0.79283,-1.095306 -0.93344,-1.122788 -0.30239,-0.05911 -0.32606,-0.350501 0.66005,8.122614 0.7316,6.286159 0.84302,6.781659 1.84397,8.199709 0.58593,0.83009 1.11527,1.52057 1.17632,1.53444 0.0609,0.0143 0.0917,-0.3788 0.0683,-0.87256 z m -38.23239,-9.899048 c 0.34888,-1.2214 1.11454,-4.184319 1.70143,-6.584263 1.00505,-4.109737 1.03484,-4.380591 0.51219,-4.657246 -0.81221,-0.429918 -7.74759,-3.019268 -8.4597,-3.15847 -0.53938,-0.105437 -0.86854,0.512939 -2.92363,5.492469 -1.27372,3.086216 -2.44865,5.906451 -2.611,6.267197 -0.23204,0.515727 -0.1344,0.731362 0.45675,1.008909 1.71127,0.803436 8.53275,3.37129 9.57022,3.602579 l 1.11938,0.249622 0.63435,-2.22075 z m -60.426972,-10.715604 2.163538,-0.273332 4.686803,-4.49891 c 2.577736,-2.474384 5.081758,-4.917708 5.564481,-5.429583 l 0.87768,-0.930686 -0.939978,0.04975 c -3.010341,0.159274 -3.847126,0.668756 -9.643893,5.871622 -5.362295,4.812902 -6.207536,5.700044 -5.289608,5.551863 0.229586,-0.03701 1.391029,-0.190384 2.580977,-0.340712 z m 47.001832,8.253043 c 0.35195,-0.381514 5.27355,-12.359621 5.15235,-12.53971 -0.18393,-0.273297 -7.80598,-2.657359 -8.71322,-2.725347 -0.73224,-0.0549 -1.08897,0.424589 -4.26399,5.73105 -1.90571,3.185022 -3.39008,5.902036 -3.29863,6.037819 0.0914,0.135835 2.49547,0.988253 5.34225,1.894366 2.84678,0.906112 5.26949,1.683445 5.38382,1.727401 0.11432,0.04403 0.29314,-0.01241 0.39742,-0.125579 z M 77.212714,82.486386 c 1.970624,0.06456 3.460062,-0.05363 3.82456,-0.303475 1.196616,-0.820194 9.881542,-10.385147 9.689205,-10.670953 -0.171909,-0.255434 -6.001295,-0.37014 -6.336222,-0.124686 -0.573058,0.419969 -11.092411,10.517551 -11.123723,10.677721 -0.04977,0.254694 0.433839,0.306338 3.94618,0.421391 z m 87.736926,16.972272 c 0.0393,-0.201209 -0.31741,-3.626285 -0.79275,-7.611274 l -0.86426,-7.245426 -1.663,-1.602368 c -0.91465,-0.881307 -1.74725,-1.545674 -1.85023,-1.476376 -0.10306,0.06934 0.034,3.38028 0.30438,7.357728 l 0.4916,7.231728 1.91862,1.805758 c 2.04946,1.928914 2.3436,2.113422 2.45564,1.54023 z M 91.695044,84.029912 c 0.390375,-0.147168 8.502726,-10.702998 8.599826,-11.190141 0.0324,-0.162245 -1.568018,-0.514489 -3.787015,-0.833529 -4.499418,-0.646934 -3.554737,-1.142751 -8.823472,4.63105 -1.992002,2.18294 -4.066982,4.456971 -4.611092,5.05341 l -0.989284,1.084423 4.619406,0.697571 c 2.540658,0.383689 4.786901,0.634422 4.991631,0.55723 z m 15.717076,-2.893194 c 2.0352,-3.384375 3.39404,-5.935819 3.26079,-6.122628 -0.12567,-0.176162 -2.11136,-0.738949 -4.41266,-1.250659 l -4.18422,-0.93036 -4.396331,5.60886 c -2.417994,3.08488 -4.422101,5.706051 -4.453579,5.824808 -0.06562,0.247757 2.294995,0.878339 7.24508,1.935319 l 3.45168,0.737052 z m 52.20058,13.535017 c -0.0321,-0.31757 -0.26959,-3.673058 -0.52752,-7.456631 -0.25794,-3.783559 -0.49027,-6.903774 -0.51632,-6.933812 -0.026,-0.03003 -0.96653,-0.6887 -2.08998,-1.463725 -2.48496,-1.714291 -3.05118,-1.878031 -3.01141,-0.870843 0.0157,0.403325 -0.0175,3.545905 -0.0745,6.983482 -0.0569,3.437577 -0.0715,6.294002 -0.0324,6.347616 0.21518,0.295339 5.55775,3.812287 5.90155,3.8849 0.24637,0.05183 0.38586,-0.143363 0.35061,-0.490987 z m -7.2679,-10.904872 c 0.0491,-3.445559 0.0769,-6.581514 0.0616,-6.968781 -0.0224,-0.563705 -0.63786,-1.050208 -3.08578,-2.43936 l -3.05775,-1.735227 -0.16894,0.832914 c -0.29139,1.440689 -1.69007,12.494929 -1.60154,12.660012 0.22153,0.413126 7.22769,4.248044 7.47721,4.09275 0.15704,-0.09773 0.32578,-2.9968 0.37502,-6.442365 z m -8.95445,0.694693 c 0.0612,-0.518956 0.39009,-3.144869 0.73093,-5.835333 0.95044,-7.502209 1.25023,-6.560953 -2.65771,-8.342615 -1.8368,-0.837412 -3.44603,-1.443041 -3.57605,-1.345853 -0.38345,0.286661 -3.42737,12.382222 -3.19547,12.697861 0.28104,0.3825 7.49107,3.713033 8.10681,3.744765 0.32397,0.01669 0.51647,-0.282325 0.59149,-0.918825 z M 81.87779,67.907802 c 1.966546,-1.746388 4.28605,-3.804277 5.154446,-4.573093 0.868407,-0.768814 1.517531,-1.489061 1.442494,-1.600549 -0.116384,-0.172947 -9.989234,8.244321 -10.946739,9.332841 -0.253783,0.288517 -0.200883,0.336116 0.220062,0.197932 0.304806,-0.100044 2.163179,-1.610757 4.129737,-3.357136 z m 0.51407,2.613711 c 1.13901,-0.164219 2.062731,-0.572144 2.918965,-1.289044 2.146766,-1.79744 9.810703,-9.279328 9.689551,-9.459372 -0.06346,-0.09404 -0.843503,-0.0517 -1.733756,0.09428 -1.461125,0.239509 -2.02587,0.625815 -5.803365,3.969746 -5.909176,5.230964 -7.50688,6.774284 -7.09605,6.854593 0.197078,0.03851 1.108164,-0.03807 2.024655,-0.17022 z m 51.01289,9.972934 c 0.0584,-0.299051 0.77856,-3.148455 1.6002,-6.332004 0.82166,-3.183552 1.43788,-5.87158 1.36936,-5.973399 -0.11193,-0.166314 -6.53195,-2.703412 -7.14325,-2.822908 -0.44043,-0.08609 -5.5293,11.81676 -5.18734,12.133172 0.34333,0.317679 7.34897,3.107184 8.40308,3.345945 0.61346,0.138988 0.88139,0.04084 0.95795,-0.350806 z m 31.27372,-2.19791 c -0.76792,-5.206835 -1.25192,-7.499965 -1.71787,-8.138914 -0.35681,-0.489267 -0.69061,-0.861409 -0.74177,-0.826979 -0.0512,0.03449 0.29357,3.253841 0.76609,7.154212 0.71257,5.88169 0.99684,7.303255 1.66617,8.332186 0.44386,0.682327 0.87215,1.125443 0.95177,0.984714 0.0795,-0.140738 -0.33638,-3.518084 -0.92439,-7.505219 z M 89.196122,70.292852 c 1.484936,0.01119 2.934391,-0.133393 3.221009,-0.32136 0.78791,-0.516712 9.405709,-10.07947 9.310659,-10.331592 -0.11565,-0.30691 -4.568579,-0.379237 -5.011149,-0.08141 -0.63906,0.430073 -10.667211,10.132243 -10.721913,10.373364 -0.07175,0.316882 0.112761,0.337654 3.201394,0.360982 z m 33.778358,5.573966 c 0.9972,-1.987011 4.53167,-10.805525 4.40583,-10.992528 -0.28449,-0.42274 -6.99709,-2.305702 -7.35677,-2.063651 -0.44542,0.299742 -6.52383,10.316395 -6.64906,10.956983 -0.0482,0.246451 0.0853,0.494591 0.29649,0.551442 0.21123,0.05681 1.54003,0.518091 2.9529,1.025 1.41286,0.506908 3.29502,1.080397 4.18259,1.274427 1.61004,0.352003 1.61503,0.350288 2.16802,-0.751673 z m -23.368506,-4.536529 1.985926,0.176997 4.12741,-5.489607 c 2.2701,-3.019283 4.0814,-5.557993 4.02515,-5.641584 -0.0563,-0.0836 -1.47527,-0.321504 -3.15337,-0.528761 l -3.05108,-0.376752 -2.92321,3.180378 c -1.607767,1.749201 -3.817553,4.138267 -4.910654,5.309021 -1.093111,1.170763 -2.000267,2.194104 -2.015896,2.274093 -0.04163,0.213198 3.618617,0.891443 5.915724,1.096232 z m 15.548906,-3.26723 c 1.82375,-3.139358 3.24861,-5.807933 3.16637,-5.930147 -0.0822,-0.122162 -1.71625,-0.528464 -3.63109,-0.902767 l -3.48156,-0.680554 -4.01256,5.377227 c -2.20692,2.95747 -4.0372,5.503131 -4.06729,5.657048 -0.0639,0.327062 2.40179,1.015292 6.09591,1.701506 l 2.61432,0.48561 3.3159,-5.707945 z m 47.57838,12.018074 c -0.82432,-7.628458 -1.57889,-12.438006 -2.02797,-12.925873 -1.15997,-1.260188 -2.00975,-1.882084 -2.08008,-1.522285 -0.0559,0.28611 0.58128,11.835039 0.75177,13.625582 0.0443,0.464299 2.72432,3.164284 3.27189,3.296155 0.24083,0.05808 0.26897,-0.765684 0.0843,-2.473579 z m -4.33102,-1.725981 c 0.18922,-0.968033 -0.87205,-13.740614 -1.1786,-14.18446 -0.17779,-0.257441 -1.0183,-0.909309 -1.86779,-1.448618 l -1.54451,-0.980546 -0.078,1.531334 c -0.12698,2.492617 -0.26672,12.090704 -0.17795,12.222632 0.14721,0.218765 4.28854,3.202104 4.52596,3.260432 0.12733,0.03101 0.2717,-0.149081 0.3209,-0.400774 z m -6.03913,-3.85864 c 0.0243,-0.128673 0.10379,-3.132984 0.17683,-6.676241 0.0731,-3.543241 0.14951,-6.536205 0.1699,-6.651019 0.0414,-0.230454 -4.58991,-2.918785 -4.77547,-2.772194 -0.23952,0.189204 -1.67274,12.719031 -1.48652,12.995744 0.21958,0.326286 4.89305,3.084557 5.48648,3.238106 0.21165,0.05469 0.4046,-0.0059 0.42878,-0.13441 z M 145.2039,69.70124 c 0.35723,-1.955764 1.47327,-11.930154 1.35461,-12.10647 -0.16871,-0.250745 -5.00607,-2.491259 -5.15797,-2.389025 -0.21206,0.142712 -2.96938,10.777953 -3.0128,11.620682 -0.0365,0.707445 0.2648,0.948988 2.75496,2.208994 3.73918,1.891992 3.83438,1.907607 4.0612,0.665819 z M 95.766597,55.50976 c 2.533783,-2.217338 4.775453,-4.180481 4.981483,-4.362552 0.20604,-0.182062 0.30054,-0.345518 0.21004,-0.363209 -0.18832,-0.03681 -8.264399,6.821204 -9.365057,7.952591 -1.717202,1.765124 -0.117442,0.528292 4.173534,-3.22683 z m 1.107149,2.776632 c 0.801263,-0.737801 8.934364,-8.607015 9.455744,-9.148931 0.4085,-0.424589 0.68781,-0.853574 0.62068,-0.953313 -0.16084,-0.238976 -2.30642,0.393245 -2.80473,0.826445 -3.49575,3.03892 -10.774799,9.622507 -10.803962,9.771714 -0.03036,0.155591 3.338381,-0.317387 3.532268,-0.495915 z m 41.606904,2.538286 c 0.85412,-3.325294 1.51151,-6.155877 1.46088,-6.290161 -0.15073,-0.39982 -5.285,-2.115245 -5.60028,-1.871131 -0.51126,0.395848 -4.87314,11.186713 -4.65003,11.503714 0.24188,0.34369 4.81394,2.153505 6.28292,2.487056 l 0.95357,0.216466 1.55295,-6.045991 z m -37.36641,-2.356378 2.04991,0.0092 4.67483,-5.061999 c 2.57117,-2.784095 4.69934,-5.179154 4.72928,-5.322342 0.0629,-0.302916 -2.39787,-0.423373 -3.27709,-0.160556 -0.32886,0.09831 -1.28202,0.805271 -2.11812,1.571 -2.87105,2.629431 -8.481827,8.06264 -8.721658,8.445659 -0.285384,0.455742 -0.02088,0.507299 2.662828,0.519291 z m 26.7851,5.08034 c 0.46045,-0.18011 5.11494,-11.206089 4.8787,-11.557121 -0.23494,-0.349101 -5.21397,-1.8319 -5.47526,-1.630582 -0.13469,0.103749 -1.60282,2.470027 -3.26264,5.258421 -1.65983,2.788384 -3.11418,5.224004 -3.23193,5.412492 -0.24032,0.384706 0.72958,0.823064 4.12308,1.863551 1.23133,0.377534 2.30558,0.717007 2.38722,0.754404 0.0817,0.03736 0.343,-0.0082 0.58083,-0.101165 z m -16.84565,-4.602878 c 0.57078,-0.463233 7.78425,-9.84915 7.86242,-10.230289 0.0575,-0.281659 -2.92044,-0.83577 -4.01766,-0.747582 -0.57187,0.04596 -2.03849,1.424656 -5.44801,5.121338 -2.56601,2.782144 -4.68763,5.171711 -4.7147,5.310156 -0.0271,0.13846 1.26531,0.413879 2.87192,0.612114 2.12922,0.262643 3.06342,0.244841 3.44602,-0.06568 z m 8.53461,1.705699 c 0.14749,-0.282448 1.58629,-2.716577 3.19727,-5.409206 1.61095,-2.692615 2.95208,-5.013712 2.98029,-5.157985 0.0282,-0.144278 -1.1753,-0.502056 -2.67443,-0.79506 l -2.72574,-0.532735 -4.02998,5.312398 c -2.2165,2.921823 -4.04749,5.401817 -4.06885,5.511111 -0.0213,0.109262 1.55687,0.510626 3.50718,0.891858 3.10791,0.607516 3.57917,0.629718 3.81426,0.179619 z m 42.45451,0.0086 c -0.57342,-3.826842 -1.16096,-7.133758 -1.30562,-7.348725 -0.47326,-0.703231 -0.68368,-0.1373 -0.44177,1.188636 0.13046,0.714747 0.5051,3.753242 0.83251,6.752199 0.34797,3.187306 0.81267,5.809228 1.11851,6.310925 0.35382,0.580397 0.57433,0.728206 0.68111,0.456547 0.0868,-0.220945 -0.31128,-3.532757 -0.88474,-7.359582 z m -1.93796,-2.319562 c -0.71124,-5.778717 -0.97187,-7.050199 -1.57938,-7.70468 -0.40015,-0.431098 -0.81049,-0.728021 -0.91184,-0.659808 -0.20587,0.138541 0.51576,12.515104 0.77713,13.328412 0.26285,0.817925 2.24947,2.715474 2.41856,2.310119 0.0809,-0.19427 -0.23598,-3.467578 -0.70447,-7.274043 z m -2.81387,4.182963 c 0.05,-0.268286 -0.50114,-9.518252 -0.72189,-12.10307 -0.11229,-1.314287 -0.34123,-1.876296 -0.96649,-2.371958 -1.68069,-1.332322 -1.68222,-1.327801 -1.82274,5.379992 -0.0715,3.410154 -0.0975,6.389571 -0.0576,6.620908 0.0397,0.231345 0.74616,0.903265 1.5698,1.493152 1.65986,1.18878 1.93437,1.323489 1.99896,0.980976 z m -4.75913,-3.840995 c 0.085,-0.472535 0.1888,-3.472103 0.23085,-6.665669 l 0.0765,-5.806467 -1.50981,-0.905151 c -0.83038,-0.497828 -1.55882,-0.85853 -1.61875,-0.801539 -0.22252,0.211548 -1.76325,12.207111 -1.5992,12.450837 0.16154,0.24006 3.55463,2.350102 4.03833,2.511308 0.12525,0.04171 0.2972,-0.31075 0.38212,-0.783319 z m -5.43018,-4.133901 c 0.072,-0.919777 0.39012,-3.440841 0.70702,-5.602352 0.80659,-5.501676 0.8575,-5.213837 -1.07177,-6.059714 -0.90191,-0.395445 -1.75015,-0.644751 -1.88497,-0.554019 -0.30225,0.203406 -3.31778,11.280488 -3.14202,11.54168 0.19625,0.291591 3.69688,1.970414 4.52337,2.169273 0.71021,0.170974 0.74236,0.115549 0.86837,-1.494868 z m -38.25989,-7.823551 c 0.23493,-0.164707 1.93618,-1.750934 3.78053,-3.524931 1.84434,-1.773996 3.9559,-3.796753 4.69235,-4.495016 1.49369,-1.416283 1.51299,-2.100534 0.0334,-1.185487 -1.0738,0.664092 -10.62149,9.04075 -10.68709,9.376299 -0.0616,0.314742 1.68314,0.178034 2.18079,-0.170851 z m 31.56309,6.352758 c 0.0377,-0.126028 0.73876,-2.770783 1.55788,-5.87722 1.69259,-6.418918 1.76078,-5.973771 -1.03564,-6.760787 l -1.3439,-0.378212 -0.73203,1.635676 c -2.09917,4.690546 -3.94425,9.303918 -3.8042,9.512016 0.1787,0.265565 3.53054,1.673724 4.59438,1.930183 0.38219,0.09219 0.72579,0.06438 0.7635,-0.06163 z m -28.00476,-6.213141 1.56609,-0.02854 4.47716,-4.947053 c 2.46244,-2.720867 4.4242,-5.025748 4.35947,-5.121949 -0.0646,-0.09614 -0.57098,-0.172988 -1.12499,-0.170526 -0.86144,0.0039 -1.75758,0.71709 -6.18931,4.926773 -2.85011,2.707316 -5.19662,4.997003 -5.21445,5.088199 -0.0464,0.23751 0.35541,0.285337 2.12603,0.253074 z m 23.38042,-1.422589 c 1.24661,-2.946555 2.30307,-5.518101 2.34768,-5.714562 0.0788,-0.346639 -2.71973,-1.303687 -3.51762,-1.20297 -0.20767,0.02625 -0.7086,0.592129 -1.11317,1.257577 -0.40456,0.665459 -1.83492,3.010662 -3.17855,5.211568 -1.34362,2.200894 -2.40205,4.062413 -2.35206,4.136711 0.11217,0.166599 4.82006,1.66349 5.24206,1.666699 0.16781,0.0013 1.32507,-2.408482 2.57166,-5.355023 z m -16.44801,1.982833 c 0.471,-0.0065 1.71371,-1.396357 4.53519,-5.071736 2.1375,-2.784433 3.8118,-5.17342 3.72065,-5.308875 -0.0911,-0.135407 -0.80896,-0.274741 -1.59513,-0.309366 -1.31752,-0.05825 -1.54054,0.05939 -2.84941,1.503301 -0.78102,0.861572 -2.82984,3.087349 -4.55294,4.946176 -1.7231,1.858814 -3.15099,3.471657 -3.17307,3.584098 -0.0408,0.207953 2.73293,0.673114 3.91469,0.656554 z m 7.36579,1.018109 c 0.48375,-0.592825 6.18951,-9.975463 6.24789,-10.274135 0.0221,-0.112904 -0.80014,-0.36961 -1.82718,-0.57037 l -1.86733,-0.365012 -3.77504,4.840928 c -2.07627,2.662509 -3.85257,4.998882 -3.94734,5.191946 -0.10807,0.220013 0.32018,0.493841 1.14734,0.733745 3.09954,0.89894 3.60416,0.954517 4.02166,0.442898 z m 33.79293,2.254632 c -0.0388,-0.22995 -0.49589,-3.30351 -1.01559,-6.830144 -0.51969,-3.526634 -0.99289,-6.379746 -1.05157,-6.34027 -0.12018,0.0809 1.05963,11.111442 1.34162,12.543464 0.17456,0.886439 0.87122,1.488429 0.72554,0.62695 z m -1.5846,-1.394835 c 0.0901,-0.46109 -1.60186,-13.894254 -1.78868,-14.200797 -0.52166,-0.855973 -0.63794,0.254495 -0.41817,3.993104 0.13047,2.219391 0.29331,5.103806 0.36184,6.409821 0.0835,1.592114 0.32567,2.621645 0.73478,3.124425 0.61787,0.759327 1.04304,1.017223 1.11023,0.673447 z m -2.75382,-5.112928 c -0.1209,-1.580058 -0.33527,-4.611118 -0.47639,-6.735695 -0.18654,-2.808987 -0.40469,-3.983763 -0.79958,-4.305998 -0.29867,-0.243727 -0.60946,-0.398451 -0.69061,-0.343834 -0.0812,0.05465 -0.19248,2.918972 -0.24734,6.365243 -0.0549,3.446261 -0.10532,6.296582 -0.11206,6.334057 -0.0352,0.19252 1.58959,1.348018 2.03256,1.44578 0.45922,0.100778 0.49006,-0.189754 0.29342,-2.759553 z m -3.41984,-0.506787 c 0.009,-0.576129 0.0703,-3.408957 0.13382,-6.295171 0.0635,-2.886225 0.012,-5.390465 -0.11492,-5.564977 -0.12671,-0.174514 -0.5445,-0.483713 -0.92841,-0.687115 -0.65866,-0.348971 -0.69913,-0.308804 -0.71807,0.712675 -0.0108,0.595363 -0.35823,3.325401 -0.77155,6.066755 l -0.7515,4.984285 1.16398,0.829815 c 1.68248,1.199432 1.96497,1.192852 1.98666,-0.04627 z m -3.9714,-2.716777 c 0.0515,-0.745915 0.31573,-2.913675 0.58718,-4.817258 0.74422,-5.219103 0.73153,-5.827071 -0.13287,-6.364622 -0.40669,-0.252926 -0.86327,-0.369517 -1.01455,-0.259071 -0.1513,0.110442 -0.90967,2.550861 -1.68527,5.423158 -0.77558,2.87229 -1.45705,5.347432 -1.51434,5.500305 -0.11734,0.313177 1.85855,1.45752 2.95089,1.709007 0.66344,0.152804 0.72207,0.06648 0.80896,-1.191519 z m -28.58152,-5.273825 c 0.30292,-0.157463 2.05685,-1.738349 3.89763,-3.51304 1.84079,-1.774694 3.95462,-3.799204 4.6974,-4.498933 0.74278,-0.699711 1.2711,-1.287737 1.17403,-1.306712 -0.30813,-0.06023 -10.67678,8.949438 -10.75402,9.344512 -0.0583,0.298001 0.38439,0.286393 0.98496,-0.02582 z m 25.02708,-0.846778 c 0.74152,-2.794781 1.39323,-5.311843 1.44828,-5.593478 0.0934,-0.477583 -1.48724,-1.470697 -1.8993,-1.193381 -0.16227,0.109201 -4.24697,9.436594 -4.52617,10.335517 -0.0946,0.304641 0.37682,0.658099 1.50688,1.129748 0.90453,0.377509 1.75204,0.622628 1.88337,0.544707 0.13138,-0.07796 0.84546,-2.428343 1.58694,-5.223113 z m -21.21081,0.560872 c 0.78748,-0.349748 9.20755,-9.31356 9.01598,-9.598212 -0.33492,-0.497665 -1.49726,0.343602 -4.54768,3.291501 -1.86372,1.801095 -4.12601,3.967408 -5.0273,4.814026 -1.56963,1.474412 -1.60808,1.545273 -0.9121,1.681322 0.39964,0.07811 1.06164,-0.0067 1.4711,-0.188635 z m 14.70275,2.622533 c 0.20437,-0.182388 1.24907,-2.415904 2.32154,-4.963346 1.07248,-2.547442 2.06962,-4.863012 2.21585,-5.145709 0.22055,-0.426346 0.0619,-0.553863 -0.92987,-0.747739 l -1.19576,-0.233741 -2.99431,4.993545 c -1.64687,2.746443 -3.01159,5.090533 -3.0327,5.209079 -0.0208,0.118602 0.47653,0.373274 1.10588,0.566065 0.62934,0.192806 1.36782,0.418699 1.64103,0.502005 0.27321,0.08336 0.66397,0.0024 0.86834,-0.180151 z m -6.26962,-6.804401 c 2.06079,-2.621078 3.77373,-4.869496 3.80654,-4.996488 0.0333,-0.126882 -0.27984,-0.297253 -0.69479,-0.378367 -0.63832,-0.124787 -1.43497,0.57594 -5.175,4.551925 -2.43128,2.584674 -4.49349,4.809793 -4.58263,4.944706 -0.0893,0.134899 0.52662,0.33497 1.36843,0.444553 l 1.53059,0.199195 z m 1.26513,5.586903 c 0.54959,-0.593961 5.98044,-9.94667 5.87056,-10.109943 -0.0646,-0.09614 -0.46462,-0.283081 -0.88866,-0.415365 -0.71173,-0.222 -1.06047,0.127838 -4.53907,4.553648 -2.07249,2.636776 -3.83204,4.889709 -3.91016,5.006528 -0.12954,0.193802 0.79555,0.576718 2.54374,1.052937 0.37001,0.100799 0.78564,0.06129 0.92359,-0.08779 z m 23.20449,-3.710566 c 0.0795,-0.407001 -0.73755,-6.651102 -0.90526,-6.917669 -0.19036,-0.302597 -0.0108,5.235535 0.20678,6.373005 0.10031,0.524502 0.62278,0.931955 0.69848,0.544664 z m -1.71427,-1.551755 c -0.0357,-0.229302 -0.20283,-2.950091 -0.37156,-6.046166 -0.16869,-3.096091 -0.36554,-5.58967 -0.43743,-5.541295 -0.23751,0.159844 -0.49239,10.920422 -0.26947,11.37665 0.12013,0.245822 0.42648,0.487633 0.68084,0.537352 0.25436,0.04971 0.43329,-0.09724 0.39762,-0.326541 z m -2.27224,-1.252697 c 0.18546,-1.118216 0.24646,-12.389083 0.0658,-12.185013 -0.1296,0.146537 -0.39384,1.690879 -0.58711,3.431866 -0.19328,1.740989 -0.55279,4.231718 -0.79893,5.534969 -0.40442,2.14147 -0.38643,2.41526 0.18736,2.844589 0.77616,0.580802 1.08172,0.681577 1.13281,0.373597 z m -2.32711,-4.7401 c 0.15464,-1.481714 0.50815,-3.914521 0.78559,-5.406198 0.60988,-3.279454 0.23268,-3.979146 -0.59807,-1.109219 -0.32939,1.137924 -1.04709,3.560886 -1.59492,5.384371 -0.54782,1.823499 -0.89926,3.450706 -0.78104,3.616035 0.35533,0.496742 1.39589,0.809616 1.6602,0.4992 0.13593,-0.15958 0.37352,-1.502478 0.52821,-2.984195 z m -18.07133,-1.511152 c 0.48405,-0.418334 0.47519,-0.431497 -0.0946,-0.140595 -0.34578,0.176528 -0.63905,0.373895 -0.6517,0.438579 -0.0502,0.256394 0.23796,0.141369 0.74634,-0.297972 z m 1.88361,0.368199 c 0.52269,-0.4178 4.66491,-4.834655 5.4467,-5.807819 0.64733,-0.805773 -0.39734,0.06086 -3.25457,2.699971 -1.56007,1.440992 -2.95297,2.805986 -3.09533,3.033324 -0.36035,0.575448 0.21694,0.623082 0.90321,0.07447 z m 12.98903,1.730489 c 0.76269,-2.369775 2.65589,-9.585525 2.55594,-9.741756 -0.21976,-0.343544 -0.55154,0.273375 -2.21334,4.115498 -0.95511,2.208227 -1.96794,4.387021 -2.25074,4.841762 -0.69958,1.124906 -0.5332,1.68178 0.56674,1.896788 0.85613,0.167352 0.95629,0.08423 1.3414,-1.112292 z m -3.73528,-0.08332 c 0.21793,-0.179743 1.22892,-2.274309 2.24666,-4.654576 1.01773,-2.380269 2.00653,-4.661081 2.19735,-5.06848 1.28972,-2.753567 -3.94389,4.942808 -6.04854,8.894795 -0.23039,0.432608 0.002,0.679228 1.01987,1.080715 0.10365,0.0409 0.36673,-0.07269 0.58466,-0.252454 z m -2.93693,-5.623878 c 1.85139,-2.371019 3.32937,-4.365576 3.28443,-4.432348 -0.0449,-0.06684 -1.95356,1.842174 -4.24137,4.242122 -3.96974,4.164273 -4.1197,4.366664 -3.28443,4.432349 0.78198,0.06143 1.23401,-0.390627 4.24137,-4.242123 z m 2.73465,0.0436 c 1.64213,-2.681952 2.9323,-4.955585 2.86707,-5.052519 -0.0652,-0.097 -1.18129,1.195872 -2.4801,2.872911 -1.29882,1.677041 -3.04035,3.840049 -3.87009,4.806669 -0.82974,0.96663 -1.52142,1.823003 -1.53706,1.903064 -0.0157,0.08006 0.43571,0.190648 1.00304,0.245817 1.02783,0.09996 1.04206,0.08305 4.01715,-4.775977 z m 9.70425,-5.175395 c -0.0444,-0.231054 -0.14951,-0.06969 -0.23323,0.358675 -0.0838,0.428324 -0.0473,0.617379 0.0809,0.420101 0.12829,-0.197281 0.19677,-0.547723 0.15221,-0.778776 z m -1.27373,-1.138378 -0.0459,-1.140884 -0.30289,1.379983 c -0.18821,0.857747 -0.17089,1.289502 0.0458,1.140886 0.20402,-0.139904 0.32964,-0.712339 0.30288,-1.379985 z m -2.54996,-1.145264 0.44891,-1.367611 -0.65988,1.002953 c -0.77304,1.174958 -1.11835,2.325564 -0.59134,1.97042 0.19437,-0.130993 0.55543,-0.853584 0.80231,-1.605762 z m 1.35058,0.487473 c 0.18133,-1.01828 0.14662,-1.182782 -0.1562,-0.739128 -0.55075,0.806927 -0.85052,2.340518 -0.42625,2.18056 0.19204,-0.07236 0.45414,-0.721043 0.58245,-1.441432 z m -3.02816,-0.152524 c 0.95482,-1.20448 0.93374,-1.817266 -0.0229,-0.667363 -0.44551,0.535478 -0.83643,1.07758 -0.86874,1.204685 -0.12424,0.488703 0.26355,0.255074 0.89171,-0.537322 z M 93.527361,176.54167 c 0.231052,-0.0446 0.581502,0.024 0.778769,0.15221 0.197262,0.12831 0.0084,0.16472 -0.4201,0.081 -0.428322,-0.0837 -0.589706,-0.18873 -0.358669,-0.23323 z m -1.64461,-0.65484 c 0.318529,-0.0198 0.738053,0.0676 0.932229,0.19446 0.19421,0.12666 -0.06633,0.14261 -0.57915,0.0359 -0.512835,-0.10638 -0.671654,-0.21039 -0.353126,-0.23008 z m -3.275065,-1.06289 c -1.230998,-0.58286 0.0468,-0.34827 1.561044,0.28656 1.005285,0.42147 1.046902,0.47205 0.261329,0.31759 -0.513866,-0.10112 -1.33394,-0.37297 -1.822373,-0.60419 z m -11.604405,-4.74643 c 0.231062,-0.0445 0.581502,0.024 0.778771,0.15221 0.197262,0.12829 0.0084,0.16472 -0.420103,0.0809 -0.428331,-0.0837 -0.589719,-0.18873 -0.358668,-0.23325 z m -1.496659,-0.61597 c 0.231063,-0.0445 0.581513,0.0239 0.778782,0.15221 0.197262,0.12828 0.0084,0.16473 -0.420101,0.0809 -0.428322,-0.0837 -0.58972,-0.18873 -0.358681,-0.23324 z m -17.003817,-7.3856 c -1.918526,-0.91421 -3.418002,-1.70944 -3.332179,-1.76721 0.164645,-0.11085 7.402726,3.23219 7.585166,3.50329 0.215743,0.3206 -0.849068,-0.11408 -4.252987,-1.73608 z m -4.368933,-2.29697 c 0.242459,-0.046 0.508971,0.0175 0.592251,0.14132 0.08323,0.12372 -0.115163,0.1614 -0.440833,0.0837 -0.359976,-0.0858 -0.419346,-0.17416 -0.15142,-0.225 z m -7.439532,-3.82061 c -0.359724,-0.24551 -0.397944,-0.35574 -0.103422,-0.29816 0.256997,0.0503 0.724077,0.26662 1.037952,0.48083 0.359712,0.24552 0.397946,0.35574 0.103422,0.29817 -0.257,-0.0503 -0.724079,-0.26662 -1.037954,-0.48084 z"
       id="path9785" />
  </g>
</svg>
