<?xml version="1.0" encoding="UTF-8" standalone="no"?>
<svg
   width="400"
   height="170"
   viewBox="0 0 400 170"
   fill="none"
   version="1.1"
   id="svg33587"
   sodipodi:docname="polygonio.svg"
   inkscape:export-filename="polygonio.png"
   inkscape:export-xdpi="96"
   inkscape:export-ydpi="96"
   inkscape:version="1.2 (dc2aeda, 2022-05-15)"
   xmlns:inkscape="http://www.inkscape.org/namespaces/inkscape"
   xmlns:sodipodi="http://sodipodi.sourceforge.net/DTD/sodipodi-0.dtd"
   xmlns="http://www.w3.org/2000/svg"
   xmlns:svg="http://www.w3.org/2000/svg">
  <defs
     id="defs33591" />
  <sodipodi:namedview
     id="namedview33589"
     pagecolor="#ffffff"
     bordercolor="#000000"
     borderopacity="0.25"
     inkscape:showpageshadow="2"
     inkscape:pageopacity="0.0"
     inkscape:pagecheckerboard="0"
     inkscape:deskcolor="#d1d1d1"
     showgrid="false"
     inkscape:zoom="1.2901985"
     inkscape:cx="189.50572"
     inkscape:cy="-10.851043"
     inkscape:window-width="1440"
     inkscape:window-height="872"
     inkscape:window-x="0"
     inkscape:window-y="28"
     inkscape:window-maximized="0"
     inkscape:current-layer="svg33587" />
  <path
     d="m 148.15459,111.37016 h -6.40267 V 73.256625 h 6.30184 v 6.049767 h 0.15124 c 0.94107,-2.184638 2.21825,-3.848324 3.83152,-4.991058 1.64688,-1.142734 3.56265,-1.7141 5.74727,-1.7141 3.52903,0 6.31865,1.361197 8.36885,4.083593 2.0838,2.688785 3.12571,6.335451 3.12571,10.939995 0,4.570935 -1.05871,8.234406 -3.17612,10.990408 -2.11742,2.7224 -4.92384,4.08359 -8.41926,4.08359 -2.18463,0 -4.06679,-0.48734 -5.64645,-1.46202 -1.57966,-1.0083 -2.80642,-2.48713 -3.68027,-4.4365 h -0.20166 z m 14.56986,-23.745338 c 0,-2.991274 -0.6554,-5.360766 -1.96617,-7.108477 -1.27718,-1.74771 -3.0081,-2.621566 -5.19273,-2.621566 -2.31908,0 -4.15081,0.873856 -5.49521,2.621566 -1.31078,1.714101 -1.96617,4.100398 -1.96617,7.158892 0,2.957663 0.6722,5.310351 2.01659,7.058061 1.34439,1.747712 3.15933,2.621562 5.44479,2.621562 2.25186,0 3.99957,-0.85705 5.24314,-2.571147 1.27716,-1.714101 1.91576,-4.100399 1.91576,-7.158891 z m 24.2646,15.073998 c -4.30205,0 -7.71346,-1.32758 -10.23419,-3.98276 -2.48713,-2.65517 -3.73069,-6.318644 -3.73069,-10.990409 0.0336,-4.604544 1.32759,-8.268015 3.88193,-10.99041 2.58796,-2.756005 5.99935,-4.134007 10.23419,-4.134007 4.23485,0 7.61263,1.344392 10.13337,4.033177 2.52073,2.655176 3.78109,6.285037 3.78109,10.889581 0,4.738985 -1.26036,8.452869 -3.78109,11.141648 -2.52074,2.6888 -5.94894,4.03318 -10.28461,4.03318 z m 0.10083,-5.34396 c 2.41991,0 4.25164,-0.82344 5.4952,-2.470317 1.27717,-1.646881 1.91577,-4.049984 1.91577,-7.209306 0,-3.092104 -0.6554,-5.478401 -1.96618,-7.158892 -1.27717,-1.7141 -3.09211,-2.571152 -5.44479,-2.571152 -2.41991,0 -4.28526,0.840246 -5.59604,2.520737 -1.27718,1.646881 -1.91576,4.033179 -1.91576,7.158892 0,3.092103 0.65539,5.495205 1.96617,7.209305 1.31079,1.680493 3.15933,2.520733 5.54563,2.520733 z m 19.40337,4.68857 V 60.955432 h 6.40267 v 41.087998 z m 38.79707,-28.786805 -10.18377,27.677685 c -1.54607,4.20123 -3.20975,7.09167 -4.99106,8.67134 -1.74772,1.57965 -4.18442,2.36948 -7.31014,2.36948 -1.378,0 -2.77282,-0.13443 -4.18442,-0.40331 -1.378,-0.23528 -2.50393,-0.57137 -3.37779,-1.00829 l 1.61327,-5.4448 c 1.00829,0.43694 1.98299,0.75623 2.92406,0.95789 0.94108,0.20166 1.89896,0.30249 2.87363,0.30249 0.97469,0 1.83174,-0.18487 2.57115,-0.55457 0.73943,-0.3697 1.37801,-0.95789 1.91578,-1.76452 0.20165,-0.26888 0.36969,-0.53775 0.50414,-0.80664 0.16804,-0.23526 0.30249,-0.48734 0.40332,-0.75621 l -11.2929,-29.240545 h 6.70515 l 7.96553,22.132065 7.36055,-22.132065 z m 15.02652,38.768925 c -4.67176,0 -8.18398,-0.53776 -10.53667,-1.61327 -2.31908,-1.04191 -3.47862,-2.63838 -3.47862,-4.78939 0,-1.3108 0.50415,-2.41992 1.51245,-3.32738 1.00829,-0.87385 2.45351,-1.47883 4.33565,-1.81494 v -0.10083 c -1.31077,-0.3361 -2.30226,-0.87386 -2.97446,-1.61328 -0.67219,-0.77302 -1.0083,-1.69729 -1.0083,-2.772804 0,-1.176343 0.38653,-2.201442 1.15954,-3.075298 0.80663,-0.907465 1.98298,-1.630076 3.52903,-2.167833 v -0.100831 c -1.34439,-0.840246 -2.36949,-1.91576 -3.07529,-3.226542 -0.6722,-1.310783 -1.0083,-2.789615 -1.0083,-4.436496 0,-3.092104 1.09233,-5.596035 3.27696,-7.511794 2.18463,-1.91576 5.02467,-2.873639 8.52008,-2.873639 1.51245,0 2.94086,0.201658 4.28525,0.604976 1.3444,0.403317 2.53755,0.974685 3.57946,1.714101 l 3.47861,-5.848109 4.33566,3.529032 -5.99934,4.083592 c 0.67218,0.840246 1.17633,1.764516 1.51244,2.77281 0.33609,1.008294 0.50414,2.083808 0.50414,3.226542 0,3.024884 -1.04191,5.427985 -3.12571,7.209306 -2.08381,1.78132 -4.89023,2.671981 -8.41927,2.671981 -1.0755,0 -2.11741,-0.08402 -3.12571,-0.252073 -0.97467,-0.16805 -1.89895,-0.403318 -2.7728,-0.705807 -0.53776,0.235268 -0.95788,0.537757 -1.26037,0.907465 -0.26888,0.336098 -0.40332,0.739416 -0.40332,1.209953 0,0.739417 0.3193,1.277173 0.95788,1.613272 0.6722,0.336097 1.6973,0.504147 3.07531,0.504147 h 10.73833 c 2.89043,0 5.05827,0.537759 6.5035,1.613269 1.44522,1.04191 2.16783,2.62157 2.16783,4.73899 0,3.15932 -1.41161,5.57922 -4.23483,7.25972 -2.82323,1.7141 -6.8396,2.57115 -12.04913,2.57115 z m -5.24313,-29.190128 c 0,1.579662 0.48735,2.840031 1.46203,3.781106 1.00829,0.907464 2.3863,1.361197 4.134,1.361197 1.71411,0 3.02488,-0.470538 3.93234,-1.411612 0.90748,-0.974684 1.36121,-2.369493 1.36121,-4.184423 0,-1.579661 -0.48734,-2.84003 -1.46203,-3.781104 -0.97468,-0.941075 -2.28546,-1.411613 -3.93235,-1.411613 -1.68048,0 -3.02488,0.504147 -4.03317,1.512442 -0.97468,1.008294 -1.46203,2.386297 -1.46203,4.134007 z m 15.57816,20.619628 c 0,-0.80665 -0.30249,-1.378 -0.90748,-1.71411 -0.57136,-0.33609 -1.56285,-0.50414 -2.97447,-0.50414 h -9.12506 c -1.88214,0 -3.27696,0.25207 -4.18442,0.75621 -0.87385,0.47055 -1.31079,1.20996 -1.31079,2.21825 0,1.14274 0.72262,1.99979 2.16784,2.57116 1.47883,0.57136 3.66347,0.85706 6.55391,0.85706 3.0585,0 5.44479,-0.36972 7.1589,-1.10913 1.7477,-0.73943 2.62157,-1.76453 2.62157,-3.0753 z m 21.64681,-0.75623 c -4.30206,0 -7.71344,-1.32758 -10.23418,-3.98276 -2.48714,-2.65517 -3.73069,-6.318644 -3.73069,-10.990409 0.0336,-4.604544 1.32758,-8.268015 3.88193,-10.99041 2.58796,-2.756005 5.99935,-4.134007 10.23419,-4.134007 4.23483,0 7.61262,1.344392 10.13336,4.033177 2.52074,2.655176 3.7811,6.285037 3.7811,10.889581 0,4.738985 -1.26036,8.452869 -3.7811,11.141648 -2.52074,2.6888 -5.94894,4.03318 -10.28461,4.03318 z m 0.10083,-5.34396 c 2.41991,0 4.25165,-0.82344 5.49521,-2.470317 1.27717,-1.646881 1.91576,-4.049984 1.91576,-7.209306 0,-3.092104 -0.6554,-5.478401 -1.96618,-7.158892 -1.27717,-1.7141 -3.09209,-2.571152 -5.44479,-2.571152 -2.41991,0 -4.28525,0.840246 -5.59604,2.520737 -1.27716,1.646881 -1.91575,4.033179 -1.91575,7.158892 0,3.092103 0.6554,5.495205 1.96617,7.209305 1.31079,1.680493 3.15932,2.520733 5.54562,2.520733 z m 19.40379,4.68857 V 73.256625 h 6.30184 v 5.948937 h 0.10083 c 1.00829,-2.083808 2.36948,-3.697079 4.08359,-4.839813 1.7141,-1.142734 3.66347,-1.7141 5.84811,-1.7141 3.15932,0 5.57923,1.008294 7.25972,3.024883 1.6805,1.982979 2.52074,4.890227 2.52074,8.721747 v 17.645151 h -6.40267 V 86.11238 c 0,-2.890444 -0.48735,-4.991057 -1.46203,-6.301841 -0.94108,-1.310782 -2.45352,-1.966175 -4.53732,-1.966175 -2.28547,0 -4.0836,0.857051 -5.39438,2.571152 -1.27717,1.714101 -1.91576,4.066787 -1.91576,7.058062 v 14.569852 z m 37.72492,0 h -6.70515 v -7.007643 h 6.70515 z m 11.86216,-34.584498 h -6.80598 v -6.5035 h 6.80598 z m -6.65473,34.584498 V 73.256625 h 6.45308 v 28.786805 z m 25.93627,0.65539 c -4.30206,0 -7.71346,-1.32758 -10.23419,-3.98276 -2.48714,-2.65517 -3.7307,-6.318644 -3.7307,-10.990409 0.0336,-4.604544 1.3276,-8.268015 3.88194,-10.99041 2.58796,-2.756005 5.99935,-4.134007 10.2342,-4.134007 4.23483,0 7.61261,1.344392 10.13335,4.033177 2.52073,2.655176 3.7811,6.285037 3.7811,10.889581 0,4.738985 -1.26037,8.452869 -3.7811,11.141648 -2.52074,2.6888 -5.94893,4.03318 -10.2846,4.03318 z m 0.10083,-5.34396 c 2.4199,0 4.25164,-0.82344 5.4952,-2.470317 1.27718,-1.646881 1.91577,-4.049984 1.91577,-7.209306 0,-3.092104 -0.6554,-5.478401 -1.96618,-7.158892 -1.27718,-1.7141 -3.09211,-2.571152 -5.44479,-2.571152 -2.41991,0 -4.28526,0.840246 -5.59604,2.520737 -1.27717,1.646881 -1.91576,4.033179 -1.91576,7.158892 0,3.092103 0.65539,5.495205 1.96617,7.209305 1.31079,1.680493 3.15933,2.520733 5.54563,2.520733 z"
     fill="white"
     id="path33583"
     style="fill:#4d4d4d;stroke-width:1" />
  <path
     fill-rule="evenodd"
     clip-rule="evenodd"
     d="M 53.502618,6.597945 52.054034,5.215039 50.603771,6.596307 6.4908102,48.608409 5.3413019,49.70325 6.0806288,51.108141 27.006996,90.86813 l 23.052716,69.15767 1.869126,5.60738 2.088429,-5.52924 35.585655,-94.196977 1.524205,-1.828794 8.752416,-10.503067 1.257007,-1.508241 -1.420432,-1.356157 z m 41.892536,45.796191 -7.473142,8.967519 -37.437556,41.986235 -0.532715,0.5974 v 0.80033 41.67156 l -17.268678,-51.80616 0.412558,0.0928 18.794565,-83.53098 0.160488,-0.15301 z M 46.409391,16.392603 30.281926,88.07012 10.537715,50.5561 Z m 7.743576,89.153767 v 42.311 L 81.887789,74.441755 Z"
     fill="#FEFCFF"
     id="path33585"
     style="fill:#4d4d4d;stroke-width:1" />
</svg>
