<?xml version="1.0" encoding="UTF-8" standalone="no"?>
<svg
   id="Layer_2"
   data-name="Layer 2"
   viewBox="0 0 919.69 152.56"
   version="1.1"
   xmlns="http://www.w3.org/2000/svg"
   xmlns:svg="http://www.w3.org/2000/svg">
  <defs
     id="defs17" />
  <g
     id="Cover">
    <g
       id="g17">
      <g
         id="g10">
        <path
           d="M216.23,22.89h33.62c29.14,0,43.22,10.89,43.22,33.3s-14.57,33.78-43.71,33.78h-17.13v39.22h-16.01V22.89ZM249.37,76.36c19.21,0,27.38-5.6,27.38-20.17s-7.68-19.69-26.9-19.69h-17.61v39.86h17.13Z"
           id="path1"
           style="fill:#1a1a1a" />
        <path
           d="M297.23,91.57c0-23.05,15.69-39.22,37.94-39.22s37.78,16.17,37.78,39.22-15.85,38.9-38.1,38.9-37.62-15.85-37.62-38.9ZM357.11,92.05v-.64c0-15.85-8.48-25.77-21.93-25.77s-22.09,9.93-22.09,25.77v.64c0,15.53,8.32,25.13,21.77,25.13s22.25-9.77,22.25-25.13Z"
           id="path2"
           style="fill:#1a1a1a" />
        <path
           d="M380.96,91.25c0-22.57,15.37-38.9,37.46-38.9,17.77,0,28.98,9.61,33.62,24.33l-15.05,4.64c-2.56-9.61-8-15.69-18.89-15.69-13.13,0-21.29,10.41-21.29,25.45v.64c0,14.89,7.68,25.45,20.81,25.45,12.17,0,17.45-6.24,20.01-16.49l15.05,4.64c-4.96,15.37-16.33,25.13-34.74,25.13-22.57,0-36.98-16.17-36.98-39.22Z"
           id="path3"
           style="fill:#1a1a1a" />
        <path
           d="M463.25,21.29h15.37v67.56l30.74-35.22h18.25l-26.73,28.34,28.5,47.23h-17.29l-21.61-36.34-11.85,13.45v22.89h-15.37V21.29Z"
           id="path4"
           style="fill:#1a1a1a" />
        <path
           d="M530.01,91.89c0-23.37,15.53-39.54,36.98-39.54s35.54,14.89,35.54,38.74v5.76h-56.83c.96,12.97,9.12,20.81,21.93,20.81s18.41-6.24,21.29-13.61l13.93,5.44c-5.12,11.69-15.85,20.97-35.22,20.97-23.21,0-37.62-15.37-37.62-38.58ZM586.36,85c-.64-12.97-7.84-19.85-19.69-19.85s-19.69,7.52-21.29,19.85h40.98Z"
           id="path5"
           style="fill:#1a1a1a" />
        <path
           d="M619.35,110.3v-43.22h-12.01v-13.45h12.01v-14.73l15.21-9.45v24.17h16.33v13.45h-16.33v41.3c0,4.8,1.92,7.04,6.72,7.04h8.97v13.77h-13.45c-13.77-.64-17.29-6.88-17.45-18.89Z"
           id="path6"
           style="fill:#1a1a1a" />
        <path
           d="M656.81,115.42l13.61-7.2c4.64,6.72,12.49,10.09,20.49,10.09,8.49,0,13.61-3.84,13.61-10.09,0-6.56-8.81-8-20.65-10.57-13.77-2.88-26.1-7.68-26.1-22.25,0-13.29,12.49-23.37,28.5-23.37,14.25,0,25.29,6.4,32.66,16.17l-13.61,6.72c-4.32-6.56-11.21-10.09-19.05-10.09s-13.45,3.84-13.45,9.61c0,6.24,5.12,7.36,18.89,10.09,13.77,2.72,28.02,7.68,28.02,22.57,0,13.93-12.33,24.17-29.46,24.17-14.57,0-26.57-6.24-33.46-15.85Z"
           id="path7"
           style="fill:#1a1a1a" />
        <path
           d="M736.38,110.3v-43.22h-12.01v-13.45h12.01v-14.73l15.21-9.45v24.17h16.33v13.45h-16.33v41.3c0,4.8,1.92,7.04,6.72,7.04h8.97v13.77h-13.45c-13.77-.64-17.29-6.88-17.45-18.89Z"
           id="path8"
           style="fill:#1a1a1a" />
        <path
           d="M772.56,91.57c0-23.05,15.69-39.22,37.94-39.22s37.78,16.17,37.78,39.22-15.85,38.9-38.1,38.9-37.62-15.85-37.62-38.9ZM832.43,92.05v-.64c0-15.85-8.48-25.77-21.93-25.77s-22.09,9.93-22.09,25.77v.64c0,15.53,8.33,25.13,21.77,25.13s22.25-9.77,22.25-25.13Z"
           id="path9"
           style="fill:#1a1a1a" />
        <path
           d="M874.22,90.13l-24.97-36.5h17.77l17.13,25.93,16.97-25.93h17.13l-25.45,36.34,26.9,39.22h-17.77l-18.73-28.66-19.05,28.66h-17.13l27.22-39.06Z"
           id="path10"
           style="fill:#1a1a1a" />
      </g>
      <g
         id="g16"
         style="fill:#1a1a1a">
        <path
           d="M150.87,92.16c-1.76,8.33-4.86,16.14-9.09,23.21-.58.98-2.04.91-2.55-.11L80.88.18l69.34,89.21c.61.78.86,1.8.65,2.78Z"
           id="path11"
           style="fill:#1a1a1a" />
        <path
           d="M150.6,59.05c.8,3.48,1.37,7.06,1.68,10.71.08.89-1.03,1.38-1.65.75L80.97.16v-.02s68.6,57.24,68.6,57.24c.51.43.88,1.01,1.03,1.66Z"
           id="path12"
           style="fill:#1a1a1a" />
        <path
           d="M6.29,45.92C18.02,18.9,44.94,0,76.28,0c1.45,0,2.89.04,4.32.12L6.29,45.92Z"
           id="path13"
           style="fill:#1a1a1a" />
        <path
           d="M81.02.15c29.6,1.81,54.63,20.5,65.6,46.56L81.02.15Z"
           id="path14"
           style="fill:#1a1a1a" />
        <path
           d="M80.75.2l-.28,1.36-36.85,140.46c-.38,1.45-2.03,2.21-3.35,1.5C16.31,130.68,0,105.4,0,76.28c0-3.6.26-7.14.73-10.6.08-.6.39-1.14.86-1.52L80.75.2Z"
           id="path15"
           style="fill:#1a1a1a" />
        <path
           d="M124.62,133.29c.31.93.01,1.97-.75,2.58-13.05,10.44-29.6,16.69-47.6,16.69-3.16,0-6.28-.2-9.36-.58-1.26-.16-2.15-1.32-2.02-2.58L80.71.95l.12-.73,43.8,133.07Z"
           id="path16"
           style="fill:#1a1a1a" />
      </g>
    </g>
  </g>
</svg>
