<?xml version="1.0" encoding="UTF-8" standalone="no"?>
<svg
   id="Cover"
   viewBox="0 0 900 900"
   version="1.1"
   width="900"
   height="900"
   xmlns="http://www.w3.org/2000/svg"
   xmlns:svg="http://www.w3.org/2000/svg">
  <defs
     id="defs2">
    <style
       id="style1">
      .cls-1 {
        fill: url(#linear-gradient);
      }

      .cls-2 {
        fill: #fff;
      }
    </style>
    <linearGradient
       id="linear-gradient"
       x1="-34.419998"
       y1="450"
       x2="1334.42"
       y2="450"
       gradientUnits="userSpaceOnUse"
       gradientTransform="matrix(0.65824856,0,0,0.93603285,22.706613,30.016278)">
      <stop
         offset="0"
         stop-color="#a667f7"
         id="stop1" />
      <stop
         offset="1"
         stop-color="#6f2ddd"
         id="stop2" />
    </linearGradient>
  </defs>
  <rect
     class="cls-1"
     x="0.0496988"
     y="0.87757659"
     width="901.03693"
     height="900.70697"
     id="rect2"
     style="fill:url(#linear-gradient);stroke-width:0.784947"
     ry="184.65909" />
  <path
     style="fill:#f9f9f9;stroke-width:1.01591"
     d="m 437.96654,690.00762 c -10.3292,-0.35112 -21.4779,-1.45262 -23.1331,-2.28544 -2.2943,-1.15438 -4.2498,-4.10083 -4.2498,-6.4032 0,-0.48763 11.0093,-104.23419 24.4651,-230.54786 13.4558,-126.31366 24.4327,-229.87416 24.393,-230.13438 -0.04,-0.26041 -25.8866,97.95708 -57.4377,218.26066 -31.5511,120.30353 -57.6428,219.29473 -57.9815,219.98037 -1.192,2.41266 -3.835,3.99485 -6.6735,3.99485 -1.627,0 -3.307,-0.75141 -9.039,-4.04293 -24.1001,-13.839 -45.5783,-31.79308 -63.8155,-53.34455 -15.9033,-18.79347 -29.144,-40.7915 -38.5056,-63.97296 -14.6211,-36.20523 -20.0318,-75.9907 -15.6543,-115.10881 0.7613,-6.80337 1.0073,-7.97552 1.9765,-9.41865 0.644,-0.95906 30.0063,-24.82916 124.2197,-100.98452 l 123.3764,-99.72862 2.8223,0.0378 c 4.4634,0.0571 14.0443,1.13775 22.31,2.51645 44.4285,7.41063 84.9155,26.79542 118.9412,56.94796 4.6812,4.14829 15.3754,14.86212 19.5086,19.54431 16.6641,18.87787 30.007,39.63342 39.8794,62.03471 0.838,1.90141 1.4766,3.50408 1.4191,3.56157 -0.071,0.0707 -183.8852,-130.23085 -200.1767,-141.90048 -2.2073,-1.58109 14.8978,12.73829 105.0984,87.98215 57.2867,47.78763 104.5579,87.26374 105.047,87.72469 1.726,1.62656 2.4019,3.56674 3.9574,11.36005 1.9296,9.66724 3.6195,21.58469 3.717,26.21193 0.034,1.55682 -0.048,1.88213 -0.6182,2.49086 -0.9334,0.9964 -2.3557,1.3762 -3.4359,0.91759 -0.5143,-0.21845 -41.5072,-41.42732 -103.8368,-104.38409 -56.6429,-57.21449 -105.41,-106.44408 -108.3713,-109.40081 l -5.3844,-5.37588 2.3991,3.09112 c 1.3195,1.70015 49.9119,64.22015 107.9831,138.9334 70.2493,90.38139 105.8148,136.3463 106.2735,137.34837 1.1319,2.47245 1.114,4.67497 -0.081,9.98374 -2.9361,13.03869 -7.6658,27.59516 -13.2117,40.66095 -4.247,10.00565 -13.7799,28.06329 -15.4385,29.24432 -1.7583,1.25201 -4.4393,1.07244 -5.9228,-0.39666 -0.6607,-0.65431 -25.3027,-49.03011 -91.3244,-179.28318 -49.7307,-98.11287 -90.4603,-178.34623 -90.5102,-178.29634 -0.05,0.0499 30.4682,92.9181 67.8178,206.37377 47.6706,144.80716 67.9445,206.73581 68.0291,207.80217 0.1735,2.1837 -0.5158,4.05506 -2.0621,5.5999 -0.6809,0.68032 -3.7003,3.07975 -6.7097,5.33204 -43.2748,32.38817 -95.9526,48.91318 -150.0597,47.07364 z m 21.7155,-470.98088 c -0.074,-0.18482 -0.1356,-0.034 -0.1356,0.336 0,0.36964 0.061,0.52082 0.1356,0.336 0.074,-0.18482 0.074,-0.48718 0,-0.67196 z m 4.3915,-0.30312 c 0,-0.0559 -0.2116,-0.26759 -0.4704,-0.4704 -0.4263,-0.33449 -0.4358,-0.32466 -0.1012,0.10167 0.3511,0.44776 0.5718,0.59013 0.5718,0.36888 z m -235.4035,139.13511 c 1.5307,-3.56719 5.5644,-11.89795 7.7764,-16.06042 15.1315,-28.47406 36.1993,-53.88355 61.5125,-74.18926 43.2359,-34.68272 96.7746,-52.91097 152.5052,-51.92319 8.1247,0.144 9.3581,0.22262 9.0059,0.57487 -0.1999,0.19994 -230.8792,142.3372 -231.0037,142.3372 -0.062,0 0.029,-0.3326 0.2037,-0.7392 z"
     id="path1" />
</svg>
