<?xml version="1.0" encoding="UTF-8"?>
<svg id="Cover" xmlns="http://www.w3.org/2000/svg" viewBox="0 0 1300 900">
  <defs>
    <style>
      .cls-1 {
        fill: #fff;
      }
    </style>
  </defs>
  <rect x="-34.42" y="-31.13" width="1368.84" height="962.26"/>
  <g>
    <g>
      <path class="cls-1" d="M546.19,427.25h14.33c12.42,0,18.42,4.64,18.42,14.19s-6.21,14.39-18.62,14.39h-7.3v16.71h-6.82v-45.3ZM560.31,450.03c8.19,0,11.67-2.39,11.67-8.6s-3.27-8.39-11.46-8.39h-7.5v16.99h7.3Z"/>
      <path class="cls-1" d="M580.71,456.51c0-9.82,6.69-16.71,16.17-16.71s16.1,6.89,16.1,16.71-6.75,16.58-16.24,16.58-16.03-6.75-16.03-16.58ZM606.22,456.72v-.27c0-6.75-3.62-10.98-9.35-10.98s-9.41,4.23-9.41,10.98v.27c0,6.62,3.55,10.71,9.28,10.71s9.48-4.16,9.48-10.71Z"/>
      <path class="cls-1" d="M616.39,456.38c0-9.62,6.55-16.58,15.96-16.58,7.57,0,12.35,4.09,14.33,10.37l-6.41,1.98c-1.09-4.09-3.41-6.69-8.05-6.69-5.59,0-9.07,4.43-9.07,10.85v.27c0,6.34,3.27,10.85,8.87,10.85,5.18,0,7.44-2.66,8.53-7.03l6.41,1.98c-2.11,6.55-6.96,10.71-14.8,10.71-9.62,0-15.76-6.89-15.76-16.71Z"/>
      <path class="cls-1" d="M651.45,426.57h6.55v28.79l13.1-15.01h7.78l-11.39,12.07,12.14,20.12h-7.37l-9.21-15.48-5.05,5.73v9.75h-6.55v-45.98Z"/>
      <path class="cls-1" d="M679.9,456.65c0-9.96,6.62-16.85,15.76-16.85s15.14,6.34,15.14,16.51v2.46h-24.22c.41,5.53,3.89,8.87,9.35,8.87s7.84-2.66,9.07-5.8l5.93,2.32c-2.18,4.98-6.75,8.94-15.01,8.94-9.89,0-16.03-6.55-16.03-16.44ZM703.91,453.72c-.27-5.53-3.34-8.46-8.39-8.46s-8.39,3.21-9.07,8.46h17.46Z"/>
      <path class="cls-1" d="M717.97,464.5v-18.42h-5.12v-5.73h5.12v-6.28l6.48-4.02v10.3h6.96v5.73h-6.96v17.6c0,2.05.82,3,2.87,3h3.82v5.87h-5.73c-5.87-.27-7.37-2.93-7.44-8.05Z"/>
      <path class="cls-1" d="M733.93,466.68l5.8-3.07c1.98,2.87,5.32,4.3,8.73,4.3,3.62,0,5.8-1.64,5.8-4.3,0-2.8-3.75-3.41-8.8-4.5-5.87-1.23-11.12-3.27-11.12-9.48,0-5.66,5.32-9.96,12.14-9.96,6.07,0,10.78,2.73,13.92,6.89l-5.8,2.87c-1.84-2.8-4.78-4.3-8.12-4.3s-5.73,1.64-5.73,4.09c0,2.66,2.18,3.14,8.05,4.3,5.87,1.16,11.94,3.27,11.94,9.62,0,5.93-5.25,10.3-12.55,10.3-6.21,0-11.32-2.66-14.26-6.75Z"/>
      <path class="cls-1" d="M767.83,464.5v-18.42h-5.12v-5.73h5.12v-6.28l6.48-4.02v10.3h6.96v5.73h-6.96v17.6c0,2.05.82,3,2.87,3h3.82v5.87h-5.73c-5.87-.27-7.37-2.93-7.44-8.05Z"/>
      <path class="cls-1" d="M783.25,456.51c0-9.82,6.69-16.71,16.17-16.71s16.1,6.89,16.1,16.71-6.75,16.58-16.24,16.58-16.03-6.75-16.03-16.58ZM808.76,456.72v-.27c0-6.75-3.62-10.98-9.35-10.98s-9.41,4.23-9.41,10.98v.27c0,6.62,3.55,10.71,9.28,10.71s9.48-4.16,9.48-10.71Z"/>
      <path class="cls-1" d="M826.57,455.9l-10.64-15.55h7.57l7.3,11.05,7.23-11.05h7.3l-10.85,15.48,11.46,16.71h-7.57l-7.98-12.21-8.12,12.21h-7.3l11.6-16.64Z"/>
    </g>
    <g>
      <path class="cls-1" d="M518.35,456.77c-.75,3.55-2.07,6.88-3.87,9.89-.25.42-.87.39-1.09-.05l-24.86-49.04,29.55,38.01c.26.33.37.77.28,1.18Z"/>
      <path class="cls-1" d="M518.23,442.66c.34,1.48.59,3.01.72,4.56.03.38-.44.59-.7.32l-29.68-29.97h0s29.22,24.38,29.22,24.38c.22.18.38.43.44.71Z"/>
      <path class="cls-1" d="M456.74,437.07c5-11.51,16.47-19.57,29.82-19.57.62,0,1.23.02,1.84.05l-31.67,19.51Z"/>
      <path class="cls-1" d="M488.58,417.56c12.61.77,23.28,8.73,27.95,19.84l-27.95-19.84Z"/>
      <path class="cls-1" d="M488.47,417.58l-.12.58-15.7,59.85c-.16.62-.86.94-1.43.64-10.21-5.47-17.16-16.25-17.16-28.65,0-1.53.11-3.04.31-4.52.04-.25.17-.48.37-.65l33.73-27.26Z"/>
      <path class="cls-1" d="M507.16,474.29c.13.4,0,.84-.32,1.1-5.56,4.45-12.61,7.11-20.28,7.11-1.35,0-2.68-.08-3.99-.25-.54-.07-.92-.56-.86-1.1l6.74-63.25.05-.31,18.66,56.7Z"/>
    </g>
  </g>
</svg>