<?xml version="1.0" encoding="UTF-8"?>
<svg id="Layer_2" data-name="Layer 2" xmlns="http://www.w3.org/2000/svg" xmlns:xlink="http://www.w3.org/1999/xlink" viewBox="0 0 587.14 588.19">
  <defs>
    <style>
      .cls-1 {
        fill: url(#linear-gradient-5);
      }

      .cls-2 {
        fill: url(#linear-gradient-6);
      }

      .cls-3 {
        fill: url(#linear-gradient-4);
      }

      .cls-4 {
        fill: url(#linear-gradient-3);
      }

      .cls-5 {
        fill: url(#linear-gradient-2);
      }

      .cls-6 {
        fill: url(#linear-gradient);
      }
    </style>
    <linearGradient id="linear-gradient" x1="446.91" y1="447.51" x2="446.91" y2=".68" gradientUnits="userSpaceOnUse">
      <stop offset="0" stop-color="#a667f7"/>
      <stop offset="1" stop-color="#6f2ddd"/>
    </linearGradient>
    <linearGradient id="linear-gradient-2" x1="14008.8" y1="272.93" x2="14008.8" y2=".57" gradientTransform="translate(14458.46) rotate(-180) scale(1 -1)" xlink:href="#linear-gradient"/>
    <linearGradient id="linear-gradient-3" x1="14290.96" y1="177.05" x2="14290.96" y2="0" gradientTransform="translate(14458.46) rotate(-180) scale(1 -1)" xlink:href="#linear-gradient"/>
    <linearGradient id="linear-gradient-4" x1="14019.64" y1="180.11" x2="14019.64" y2=".58" gradientTransform="translate(14458.46) rotate(-180) scale(1 -1)" xlink:href="#linear-gradient"/>
    <linearGradient id="linear-gradient-5" x1="155.68" y1="554.4" x2="155.68" y2=".77" xlink:href="#linear-gradient"/>
    <linearGradient id="linear-gradient-6" x1="365.56" y1="588.19" x2="365.56" y2=".86" xlink:href="#linear-gradient"/>
  </defs>
  <g id="Cover">
    <g>
      <path class="cls-6" d="M581.7,355.33c-6.77,32.1-18.74,62.22-35.05,89.5-2.25,3.77-7.85,3.49-9.84-.43L311.85.68l267.34,343.95c2.35,3.02,3.31,6.96,2.52,10.7Z"/>
      <path class="cls-5" d="M580.64,227.67c3.1,13.43,5.3,27.21,6.49,41.27.29,3.42-3.96,5.33-6.37,2.89L312.17.63l.06-.06,264.43,220.68c1.98,1.65,3.4,3.9,3.98,6.42Z"/>
      <path class="cls-4" d="M24.24,177.05C69.49,72.87,173.28,0,294.1,0c5.59,0,11.15.17,16.67.48L24.24,177.05Z"/>
      <path class="cls-3" d="M312.36.58c114.11,6.99,210.63,79.03,252.92,179.53L312.36.58Z"/>
      <path class="cls-1" d="M311.35.77l-1.09,5.25-142.08,541.56c-1.47,5.6-7.82,8.52-12.93,5.78C62.9,503.84,0,406.36,0,294.12c0-13.87.99-27.51,2.83-40.86.32-2.3,1.52-4.38,3.33-5.84L311.35.77Z"/>
      <path class="cls-2" d="M480.49,513.9c1.18,3.59.05,7.59-2.9,9.94-50.31,40.23-114.11,64.34-183.52,64.34-12.2,0-24.23-.76-36.08-2.23-4.86-.6-8.3-5.09-7.78-9.96L311.17,3.66l.45-2.8,168.87,513.04Z"/>
    </g>
  </g>
</svg>