<?xml version="1.0" encoding="UTF-8"?>
<svg id="Layer_2" data-name="Layer 2" xmlns="http://www.w3.org/2000/svg" viewBox="0 0 587.14 588.19">
  <defs>
    <style>
      .cls-1 {
        fill: #fff;
      }
    </style>
  </defs>
  <g id="Cover">
    <g>
      <path class="cls-1" d="M581.7,355.33c-6.77,32.1-18.74,62.22-35.05,89.5-2.25,3.77-7.85,3.49-9.84-.43L311.85.68l267.34,343.95c2.35,3.02,3.31,6.96,2.52,10.7Z"/>
      <path class="cls-1" d="M580.64,227.67c3.1,13.43,5.3,27.21,6.49,41.27.29,3.42-3.96,5.33-6.37,2.89L312.17.63l.06-.06,264.43,220.68c1.98,1.65,3.4,3.9,3.98,6.42Z"/>
      <path class="cls-1" d="M24.24,177.05C69.49,72.87,173.28,0,294.1,0c5.59,0,11.15.17,16.67.48L24.24,177.05Z"/>
      <path class="cls-1" d="M312.36.58c114.11,6.99,210.63,79.03,252.92,179.53L312.36.58Z"/>
      <path class="cls-1" d="M311.35.77l-1.09,5.25-142.08,541.56c-1.47,5.6-7.82,8.52-12.93,5.78C62.9,503.84,0,406.36,0,294.12c0-13.87.99-27.51,2.83-40.86.32-2.3,1.52-4.38,3.33-5.84L311.35.77Z"/>
      <path class="cls-1" d="M480.49,513.9c1.18,3.59.05,7.59-2.9,9.94-50.31,40.23-114.11,64.34-183.52,64.34-12.2,0-24.23-.76-36.08-2.23-4.86-.6-8.3-5.09-7.78-9.96L311.17,3.66l.45-2.8,168.87,513.04Z"/>
    </g>
  </g>
</svg>